<mxfile host="app.diagrams.net" modified="2024-03-16T19:19:45.112Z" agent="Mozilla/5.0 (Windows NT 10.0; Win64; x64) AppleWebKit/537.36 (KHTML, like Gecko) Chrome/122.0.0.0 Safari/537.36" etag="32UU-eRaT053avjC5g-7" version="24.0.7" type="device">
  <diagram name="PÃ¡gina-1" id="vAFO2vHtQSqkSQXf-BFk">
    <mxGraphModel dx="2783" dy="964" grid="1" gridSize="10" guides="1" tooltips="1" connect="1" arrows="1" fold="1" page="1" pageScale="1" pageWidth="827" pageHeight="1169" math="0" shadow="0">
      <root>
        <mxCell id="0" />
        <mxCell id="1" parent="0" />
        <mxCell id="8hgxPUImvKMug2X6srkp-1" value="Entity" style="rounded=0;whiteSpace=wrap;html=1;" vertex="1" parent="1">
          <mxGeometry x="-460" y="13" width="120" height="60" as="geometry" />
        </mxCell>
        <mxCell id="8hgxPUImvKMug2X6srkp-2" value="IRepository" style="rounded=0;whiteSpace=wrap;html=1;" vertex="1" parent="1">
          <mxGeometry x="610" y="10" width="120" height="60" as="geometry" />
        </mxCell>
        <mxCell id="8hgxPUImvKMug2X6srkp-3" value="IService" style="rounded=0;whiteSpace=wrap;html=1;" vertex="1" parent="1">
          <mxGeometry x="1070" y="10" width="120" height="60" as="geometry" />
        </mxCell>
        <mxCell id="8hgxPUImvKMug2X6srkp-4" value="Service" style="rounded=0;whiteSpace=wrap;html=1;" vertex="1" parent="1">
          <mxGeometry x="1657" y="13" width="120" height="60" as="geometry" />
        </mxCell>
        <mxCell id="8hgxPUImvKMug2X6srkp-5" value="Controler" style="rounded=0;whiteSpace=wrap;html=1;" vertex="1" parent="1">
          <mxGeometry x="2058" y="13" width="120" height="60" as="geometry" />
        </mxCell>
        <mxCell id="8hgxPUImvKMug2X6srkp-6" value="DTO" style="rounded=0;whiteSpace=wrap;html=1;" vertex="1" parent="1">
          <mxGeometry x="250" y="10" width="120" height="60" as="geometry" />
        </mxCell>
        <mxCell id="8hgxPUImvKMug2X6srkp-7" value="1. se crea una entidad&amp;nbsp;" style="text;html=1;align=center;verticalAlign=middle;whiteSpace=wrap;rounded=0;" vertex="1" parent="1">
          <mxGeometry x="-460" y="83" width="150" height="30" as="geometry" />
        </mxCell>
        <mxCell id="8hgxPUImvKMug2X6srkp-8" value="2. se define que datos tomara el DTO&amp;nbsp;" style="text;html=1;align=center;verticalAlign=middle;whiteSpace=wrap;rounded=0;" vertex="1" parent="1">
          <mxGeometry x="250" y="80" width="170" height="30" as="geometry" />
        </mxCell>
        <mxCell id="8hgxPUImvKMug2X6srkp-11" value="" style="shape=image;verticalLabelPosition=bottom;labelBackgroundColor=default;verticalAlign=top;aspect=fixed;imageAspect=0;image=data:image/png,iVBORw0KGgoAAAANSUhEUgAAAPsAAABuCAYAAADh2WVWAAAAAXNSR0IArs4c6QAAAARnQU1BAACxjwv8YQUAAAAJcEhZcwAADsMAAA7DAcdvqGQAABReSURBVHhe7Z0PaFRXvse/rw+6+hbCc42MXV3jaOU9LU20uOiaRmu2eVpcEMujVJoQduzTgosNuJWVao1bxVIbiFKhFhwIpujrgiJUamubqDFWMeufiMoSzTT+aR2M60NodQPbeed3zrl37r+Z3CR3zEzu7wNX594759xzZ/I7v9/53XO+8y8/PupLgWGYEc8T+n+GYUY4bOwMExLY2BkmJAyjsd/DrVWz0XNO7zpJHkLXjNn4m9wacVcftmG854NOfSA47n5A130Tt5L6QJ7w4OCb+jPJ8rmMNMT3vHrWDlzUu9m5hIZZv0ap3OpwIM++v+z04rM3SjH9mVKsOdirjwVH/nr2yFJMu9KB/2jdWFjhx7lG/G3VITzQu4Ei/uiTbwM/bxWfC302V+owTp96/NzDgT8YRpXeVh+6J89ebKR9i4FKg02fzx3PYu35s+g8H0etPuIPr/txdzB0X7m6h96Dm/AW6tF2uRM7lxXro8FR2GG80SH8sVQfCI5xfyRj2oGJEX0gH7idwE8VlSjKizaNxcsfklEdQX05UFF/RLw+i11Lx4pz93D9WjkqyhO4rj1r7+lWoFy8Mc8x7oO2vbXNqPEdUQydW91tqFo0H8GbuWKIxk6hOIW6nejxCi1dXo7e5wyNM5TtBxVmq63roFdPa61XbH69bdbhA9UpjlnfY9RrHKtuBtrexfeeddjbZGu38VlZ63YMTx70JPQrN/bw3vkZqyFT+ry1TY5zAQ6JflsVxden6R7v4URiIVZWiY8m8Z06aQu3xfaHQyKItXB+R/rc4i1o04epLvLADef1rqD3UB1KGy/pvf5wePAs5crqqCNrxsfCk8triPfXNIl7qF/sWV5FM8aWf0OIADx7O35YuAf/qkPLX8Sa8fcB/ME8qh5cWeV5qYw+YIOMKoa+rV/I98ht91IU6bNZ6Xf4INq4MIF/l/XGMUoY9n3KOxjlmquFe9iIp4zrmqE2GZW1TXE8+fYie86COgmjbrp+fI80WqNj+/7tdltHYnYWooO4j3d0vR14aivwwztG50bXXYQfpsXN89bw/+4H1nNf4OddsQyd5yCYW4kpR0+iN3kSiejzmKAPK4OLodv0osKosAWVhuGI+1kdS6D+iPKwnUc2oEKdGTIXGxej/ul4+rrXYlnC8rGY+rTqoIqXNsoye8XYwOr9O+uele+kzqDm2ga06OMt9UD94scXFfghkDB+VHM63B1XKf7YuxK+x6yusvEW3949Ew8O7sEjYXCRZRRSBk25GDMbxlKKfxOdTV+PD+MQf/APYW1TKcZsLcejFmvnZqk78jxGV7Tjn7fTHdtT4v3WjmSaUZfoaEos91o0rxJPtCXwD9o5txc/tFXjF55DnU78GLeeG4uJq6rx05GTvr8/b75DQvRLNH5+8elWNO37FtG5lu/ifDPq26uxUob8hBgSbBQG3dQijePivi3CUjbi5cCHK5fwVVM19moDldddUY026pD0EScTon6GHpfQVN+O2hVLzRC8eOlGGRV8ZYlAstOLW13AjJJcBfG5GrMbf2gDZUI0kAb947r4S5sW9efJHxc03raF99pTW7GNx4Xh7e5AyXN6NyuOUHzhu/hJn5Ghf0UUP9P7NpIJ9FGkYmmTHIYESNmCKJquTcZ8cV/Fk6L6qKB8ssXTPyaS3egW91tjhtpiE9FkNm6rXssH5Yj+Ur8cIBcaKAO/CdjciTd8fd+DIzfGnumPqz9kAmqQZS38bGqeJoJs4b3eAkguylBcRA1m3ZYhSFGJxcA8EZ7d2h7a/A55shLFVOq4Zr2Jzg/THg/XupUXbf8WImhJ8923lnF5LhGe3QjBjc3aPhsUCdCfsx8rboeZjpAY0U3/zFzbiauXNwObSvFRpkfRARCwsYuxsvAMTyx+Pv3HYnp5NWZ9JF97Ic7vdpQdJDKMjccyP8PPJRSdtLXggTM581ylHN8ngxoPOzEjGfE5vpP27FmvK4cKA8uxBMKsStQKD0uJL4UYw+9pFmPhapSJPQqd06H1JTTYEnSK7hu67PkdqBQhtC/E/f5WhNY1vpJ5Kq/QVL4Bm83hhrNtBmK4IsbyTXvSScbeQ3tk2dpZ+kC/FGPiNOBKT6YBxdAZ4kIYnfyxfBNPbP0iPZYUUHLp73H1elSzeCETcjROz16WssuuMFd6IRrTqgScs+OwXZuy2pZwVnpVHx6r/+sa7Vdn6P7+b6r9nu11GGUJd7tHNetQnbLxu6NZ2yjrPVLpfo/jXkdt3Yi+tynRl+m61jb1/x16Q8awWIy99a6Gkle75p7E6sXfYuX5N6XxmlCGfc9ktEhPStl4YUz6FGrjZrLLXnc56o+sQGJxC1406qMEntEBCIPaW9WKmsQKVZ6u4QrNqY5GnQNwt1u2eSnc92Nrk4GjvOU9lI2nbL2CIgjH/fcDhfPxKS05ecZOBGLs/1zld2zJMEwmcm3suRmzMwwzYCZOqcDRblsmI1DY2BkmTyhethnbu2pyNjeexSsYJiSwZ2eYkMDGzjAhgY2dYUICGzvDhAQ2doYJCWzsDBMS2NgzoIQICk3DLF9R2mr2RR4X8dEzDbig95jcU7jGTvOjrUsVnYZJc6Sd6icjmUvnUPenq3D2TZ27j6Fu4SkcNUUC7uPon44h7lfYJQAuNFTirWl7Hcs3y/DfW7qx/I0D4fmOhpkCNXa1EmpK3LpU0VjoEAxldcHXOVxE5gAdHff13mPmXAOWx2uxb617SUjxsl3YN60ef87BbDHGTWHOoJMrm+C9qsi6IsqGsQpJrVpKrDiLF48bq5Qsq6Js5Z0rl2ilVgtePDIZH1tWXalVXAr7yieFWlXV3yoy5YXj+/WOJrKuDOtfGiNe9SC+MAFjMap5/O5VbHsl6fLoQBFircKVijoPT4og8v5DzBb7pdKzX8TN115ATC7WUvuHz8hCwJwI1r83HRF5/CqwYBQOv/8AeDWKGBKyfaU7M5QV72lcVaJ3CArfK3FrZRZRhuQBrKlMIHZ5LWbqQwa9B1ejYgOwvWUXfjcCOt3hpjA9u14P7an8GVmKXeTp49XKEE3Pb+8YmmK/xsdRpSW2t7Yd9ft0XGuUz6h7Jq4rl29SnXHUtm9BkyE9JDqhGpI9kueU6iotgfRj6BSGx/eTgb6AxtYyLBHemIxHGToZVQJJYeCN8nxUGO9FFYqPm471dGxnkTJUeZ42MmyD8Viy7hE6PEL35OcJYK1RRlxXdBvxz40ooA+Hj4/G+k9FZ7E/IToN0cGsexKdp3rk2c7dwtCjwsCNsokEtpllBckT+LKtFnOzrYiMzMd/VTTh9HBoD4SMAg3jlTa4kvpVY3ar2qgvLEZYtkB0DIaCSr9QFGB0HEq0wBBSuHi8WdRbqc+NxfwqYe0+6+08Rd5zrDbQMShd8CSQ+FF57Lt30CF8bUwaPlEijDdtdH6IzB6D5CfuMX3kpedQpRa2C9R1kzfSCnSlr5GXJ4qwxLw+0YMO6pxMTz4GVa8VIXn8TvoatxM4WhHFRL3rTWbRBgrzr15mrx4UBZ2NV+NqsQkvTp56IOL9tQssogRO6aRBIsUJtWgirfU/cbQdFVXP+6o3MkkY9/57Oky/j87jfYgsGK8M7c5DJM8ksW0hJdvUtu39PvlO34gIYElU1OtU86RhwGDqvUsd0QMxtEiXrVtjl6ns7enWr7KT66WdjKKgjd1EGCtJ/KY1yYcHJahoRBuLUQ+7pFE2IhNHiX8N4xHhsc2TC2whut5s4+P+KZ0nxt8H7ug9ogdxMd6HOTx4QYbp/jGGHZZNjvcVxSVT9KvsyB9HmPLY5SdDx8gwdi9hwF9ORkV7K064M1c54p7UUau1PiHwHS2IMfknD2Tiy8to8KwI74VnT4+lPRg/GpEzHp7byrNRMa6+L4YEdiITdacivHzcr2cfNx6z54jOaXeWocSEKKraErild73JLKFMCTpa251LEcYwUZDGbvw6R3pTPzhgS4RFlmKzFOo33uNPsN+sW2bbDS/tp6zSIKfhhK1tvp71q/Fu5xpLSEyb+dy8RHhQlZSznrc9KxdhemwdcPgV4/w5M3OfhsbkEEMCvWuM/Y3rvvIQs317dtHm91RSztomW4JOJ9/i2R6tZUniGZHBjlY/3xzTHyxeERjpR3prTUVRdezrqv4evalHWOnHYYQ61rHAePRWoJxrwPQaYJ/HozUiq+6afCxXjxl7c6unHhZGSBifD3johCdP4mtxbMqk/sbtD3DT9LYaysCLY2aIXag8txb7Yk1Y3uD2zhSmL++qxzsuQ9c/XcyGHijs2YPEQ8aYxvBpT58Fmu7qyGanJ68UOl6Ta2hu/FeYm8HjM8HDxs4wIYHDeIYJCWzsDBMS2NgZJiSwsTNMSGBjZ5iQwMaeAZaleozQxBuHYg09g8/FTyCFmcI1dpalspNBlkoet0xntUtUDR0S3LBNkR0oNEuuphvbN79sW0dQvGwlZmyo5HnxAVKgxs6yVAPCsmJuvZw/7zVvfjjoxWeb6oEtmz3WrJfhjZZ6XKlhUcqgYFmqES5LVUqe/ZPRWmpKIGfqQZ2T77PXm5alEjjLyvfexq8+nYfSjlPea9+t0lTyWsaswCexRJRLC2UIKHz/OIq2j+xe3UrmufM0A68GO2J7cdVD345xU5ienWWpBihLlUYq4swZrY3XWa+SpdqWbdmqJvLSPFkm9qrqeFR5sRmGTp3QmkfCwPXxnaNcEcWF1iZULZqfdRnwzIW1OPrFifAMx3JIgYbxLEs1IFkqi8pNHMLzmp47gcNnrHJTY1C1lvTmDMWcwZMkNdt109OenNbSz3lg0cHLvI7dRsY18SLMv9zJXn0AFHQ2nmWpfGJ4fPL+TkM2vXywJG/0IWlbf29RoZXcxi33WMtNZCpmoBu3+KnIkCloYzdhWSp/aO962Jo9PyM6Ev1SQh2LfjlUbOG93tKr+CZgovc4yU7yOq5gCibmokcKGSPD2FmWyp8slVbESb6vE3JUr+hg0sav2hFZF02P983OQI3vneE9RSQ2RVlN6Ty6ztUsj/kyq8rayKhQSwm6UtfzeSYzBZmNJ+moynq7UoRXxtv+Pnc23muduVfd6bKUjd+DqJG5F1D2nRJ98toe69md2fqM2DLXGmtm3Jk1FzjXuyc/t2bIM2TjpdFqvXcZGTjqdfzQg/UJQelOEbmsUdn4dFZd1+f1QxGue9Jt0nv9qdgQmbPxao38W20V/CMSPuH17IHBslQDRxnsl4uyyVJ5/1oMQR0BKd1ke3THpBkhYXw+wLJUA6cYvyNV0A2b8JlruCXCdClL5WHoFBGIEJ4NfWCwZw8SlqUaHB6Ta2hu/J+x2dvjM4OCjZ1hQgKH8QwTEtjYGSYksLEzTEhgY2eYkMDGzjAhgY2dYUICG3sGWIPucUBTdY95y2kNEZo6LJf0Wn/pNkg8dPNoRl8+y2gVrrGzBp0dmpTjMhqacmssMTW2fJGkGhpD1r4bChl082ZWk4zWao/ZgPlBgU6qoQUpMSDb7DQy9j2T/S1CGQm4FrwQ7vn1amGLY0FKAUL3cXjScKwb6Gc+vw+preGiMI1dTktlDTp5PKsGXRRJ12IaZweg9j1XrRGOabzp9mgynZfteoglrWPRYbTbsorPtkLP65qnxmL9pNvme4x67Sv7LJh1WD8nD9075yo/68rCLNc16deYvX6xVqN/bx5bMnQUuYaMvfC2v6benV6Wenr69tQ3nufF9s321NOv/yV1w3Xu+1Tz61S2LPX7//1eHvvmPbH/3l/t7+v5S+r3rvqd11X7736jz9M1zXP6Os56M21nT6dW/uZ06rTcT6YO1X2ZWrmjS59X+xsPJvV+V+rD33yZ+vCsLmuUr7uYShj7cnOWU9vpHem6ra+9r3Msdehmuqxtk23OcP7mxdRG0cb0eY82iy1x8Jjl+nqT9VraJeuyX4fa7bwv++bVduf9OT5n53Vt34naTm39z9Tr+74z9722G/v+J1Wy9az7XM/+1OtT+y+fq61Ax+ysQTcgDToHUgJL0oMOCulNr6rFLWxiFH3oID05FyIikEIXFp05D0p3Gp61BLNfFc7tls9xNnlco13jxmP2nD7cvKN2B40fzT3rdaW4xyMkTQEOf7p5xSVTgK7r7u898jJ2Xu4ctsU9BZ2NZw26wUH6cJK71JkYUlh6s628K0HsU9ECU0vOmtxTy3KzL8EtwmzLx1y66gV7SDxAfHcU2RiS5p5P3byMIpnDy8h49MYadAOAvDl1LkV6n8b2jnqtST5Dqlps69c9Eu0zDL4IvyK568dIIGv7h6S551M3L6OU1vAyQp6zswadPw06SsYl0Ck6DtmRyPBYdDA+dOIJ1SEZqKFG55rcP8pLfn5Vht/WKCGT9l1W/GjuZcWfbl5vTzcwbar7u6cEHenmNbh+7eCxUJDZeNagU/SvQaey8TYJZ2fmW3YA9veYGWhXm9zZbWd23J2N93rE576mxGib67pejwoddWQsS1jb7fgcrZ8Hlc3wCzjmPVM2PqtuXpZsvBTJrMEO1GbV3csVLF4RGKxBFxguo8snhvKcXZV9a9rw/GTVCAnj8wHWoAsHWXTzMsysI0hma/ozw2foBHv2IGENumDIa8+u8fDgNDf+9EKv8D0/YGNnmJDAYTzDhAQ2doYJCWzsDBMS2NgZJiSwsTNMSGBjZ5iQMGRjV5MF+HeyGSbfCew5e+bf0WYYJh8ILIyfubAWR7tv6z2GYfINHrMzTEhgY2eYkBCcsZMUT/wrXNC7DMPkF8EZO4nptUQRH0YlDoZhMhPcqrc8FsdnGCboMbuX7hbDMHkBJ+gYJiSwsTNMSAjM2C+0NqFqygS9xzBMvjFkYzfmxi+P1yLGU2UZJm9hDTqGCQk8ZmeYkMDGzjAhgY2dYUICGzvDhAQ2doYJCWzsDBMS2NgZJiSwsTNMSGBjZ5iQwMbOMCGBjZ1hQgIbO8OEBDZ2hgkFwP8DCPzHtqQDGJoAAAAASUVORK5CYII=;" vertex="1" parent="1">
          <mxGeometry x="250" y="160" width="251" height="110" as="geometry" />
        </mxCell>
        <mxCell id="8hgxPUImvKMug2X6srkp-13" value="3. escribir un query con una sentencia SQL&amp;nbsp;" style="text;html=1;align=center;verticalAlign=middle;whiteSpace=wrap;rounded=0;" vertex="1" parent="1">
          <mxGeometry x="570" y="90" width="180" height="30" as="geometry" />
        </mxCell>
        <mxCell id="8hgxPUImvKMug2X6srkp-15" value="" style="shape=image;verticalLabelPosition=bottom;labelBackgroundColor=default;verticalAlign=top;aspect=fixed;imageAspect=0;image=data:image/png,iVBORw0KGgoAAAANSUhEUgAAAYIAAACVCAYAAABVXv0eAAAAAXNSR0IArs4c6QAAAARnQU1BAACxjwv8YQUAAAAJcEhZcwAADsMAAA7DAcdvqGQAABmwSURBVHhe7Z3PaxtZtseP3x8xhCQMYZAC4/YiNAlh7Mcj9KJBcoMdmPbibQJNtwzjhfXI82KCQ3dI6I0JyAMesJIJZPMW7obYMJKgF+meZuIhL02ThVsDkeiXRWJCM/+D3jm37i3dKleVSqWSLKm+n3AjVd269UOyzjn33KrvnekwBAAAILP8m34FAACQUeAIAAAg48ARAABAxoEjAACAjANHAAAAGQeOAAAAMs5AjuBd/Q599tlnqtypv9Nrx5fG6gytNvTCAMh+Zmacksb+hsXrbaL3Zoi+4/e3+PVjXs4KWb52APolsSMQJ3D7xRW6++ABPXhwl668uE0PX7qVdEc7CCnu+lOkvb1ARarTbkGvGIDCboc6nRZV5vWKMeXCRf2GyfVzrm02nGw8xZCqsqrXM9/xe3e9LmJsBTG+YQY3qp3gr3/E52CMub/EMeqJrx2ADJLQEbykvz45R2ufF+mMWj5DxdXr9PYHsfgv6eHtJ3RuTRwEl7u8fucOnWqHob1NN8pzVE/DC0wabAQv6Ld5yziGIk4gz86uRfRTR5ddXadZqlt1XK7p9b0Ia/dogWiNX+26T3J83uvd5SWu39Hvv+L1sej32gHIKIkcwbv6Ab29/hFdevmwG/W/O0vn3h7TS657fv46fXRJb3ymSEtX39CLH8UTsJP47CH/r1E9B/9ycE/i5UNertv1TjuVnrpTp66feUf1O95UVWOrTFTZINsNSA9hZmFb7J6LpHwWtp01dvonfgqoQaszq/y/hh3QwonlEaaV+IJ/euYYw0/49ctx9IP8cTcO2cj7nM3ATMK1AzAmJHMEx0RX3n9HD3fe0vW7d+n6+fN01uka0PHxG6JzZ3VPweHM2fP05rhXl0B6Ese0pFJNUjhG9PUknr8gWtX1a1efk3RAzhSX6OqbF6T8jPDuR3rx5iotFc0ZNGi/Ok8rixxiWuTWN6l0uEc11xPIdiXaXHe2c9I/urQqdFS0DHoi2Enkm7Rp9tnh8Li4QNrvhONzHkN3Inz5WxWi+9wreI8j9dd6tc1B0UrVhGwTRFC71zWiphW5AwBGTwJH8I6O356js3RMb89foffP8PIbXrYtfxLYu7yl57TjRvw7vOTl6pJJRRFd+vQBfap6HZfostvjED/A3kJ6K2rJMEcXvX6AKdBy6ZD2tCdob9+jamm522torHYNb75MHLQORvsVHVGViq4xL/JSDHLr9Mx1Ht0yzCyXScnUVogWA4y9J8Wjo+44JG0HABguyRwBu4EzbLjfSOQvBvx8twdwlqN/entspWrExr+h8708hezv/HU9+GzK5+QG9hFc+ug6sSfgYzpjF93eQDSFDQ5992rU5n+1PckeGevK0XvxiCotbXi5RzDweGOrSYfzFWp5DPoz0h2QcEbdI7AwDmGJvWB1SMdTg7q8/7i9CgBA+iQcLLYQAy6vL3+g5+wYLr1/hc6/eUJ/Nfn9lw9p5/l5uvK+Mc5vyckSvaP67hOnrXDpMl212/WDjEOce0E/1vkcrl729QaEI3oVlILJLdIK7VGtUeP/V8jNHqnovYuMMcTvEZhjtWn7htWusEylwzJt9WtQT6FH4IGvpcUvubyzmDp8HTfZy65ZdyYBAEZLAkdwRqWF3onhfr5Dnx0QXaUndFvGC2SEmI3y52tX6fmOTvGocQQT2V8iCd6f3Ja62/TiynVua7hEn6o7jExqiItnEDiaS5fP0ZMnz+nqZb8b8KaAvORofXOOysUyzW2uS3rcgY3vJrcp553o+95shUq6Shn4BVmfp7JEykU7Qi+QdDKcdnnaW7HbFWhXjTU426viG6weC/g63Dy+FHYA+bpzF4/Bk+vnYt8G2ix7625Zji+snQzmLlW9dXL7KABgNCSaj0Du4PnhssnRhyF3CB3QWdcJDBm5g+ngLN11b2m1kPSKGqjd7Y4BAAAAUCRKDV26zBH/gRWtsxE++dAYR/hrHKWr6F+KdZto6rDT2eHegDWY7IEj/MeVIyqOIrEOAAATRuIZytSTxU9Mhv8qrT34NCA3P3ykd8I+gM5fv0uf9+h6yLMB+8sjzK8DAMAEgKkqAQAg4wx+1xAAAICJBo4AAAAyDhxBykyD/DEknAHIFnAEKTMN8seQcAYgW8ARROJTE42LJaI2sfLH03ANAIBYwBGkTaErqNaP/LGkYB7plIwUOx3jn7TFPK1rJoKRtiIM90hv5z7N2+b6gHY9SXgNAIDJBI5gjLjf1MqcdUeqwUgwXNvV66W0iFrFbp1s9yGvF2G4xixRrcL1r5y6W3miNdOOC3E7SDcAAPzAEQSgJq1RekAiFd2VjjaT1gwLd3IWNuBs07twJG+ietH+YX/RpdSd6auwqN8IfKoiFrdm9QgOnBoAAPAARxBAbv2ZVvmss50tUV2979CznprRw+EWR/I3zdSR/OpxEmHwdjLhS83qEUixxeMAAECAIxh3dGRv+G7L1yMIoxBjHgHd04g9dgAAmErgCMYdjuDXSnrqSDbaO9wdkInc4/AlexAZTzCpoRPTSuoU1MG+swgAyCbQGso4cscR1XFnEABZBj2CjGKeHm5V4AQAyDroEQAAQMZBjwAAADIOHAEAAGQcOAIAAMg4cAQpk2UJZ8hXAzCZwBGkzLhJOD9aGN0DY5CvBmAygSOIJMMy1EmBfDUAEwduH41EHME+LXd2RbFhqIjU9DezRK1yV0Jih78ZJSgnctKW2NyS9QCYpGBEfdTeThRHL2wTLfK+/IhmkdIbitgnACBboEcwRhzsEW2xERdxuJ0SOwbpimiDXWADbkTnRDail5z0hXVn+5scoYuR94vOQaIaAGCAIwjgtGSolza7aRWZg0Ai9Nc1jtrZKbiqoVp7qG0r0fULX4Y0h0Q1AECAIwhg3GSoU4e9ACSqAQAGOIIx58Ii0WzVStvw6w4v5/J6mflZ1z260c35G34zx3Zfz1jmwj0NSFQDAAxwBOMOR+lf1bsy1DJDmYwXmOi9VOnWNVbYwDurXa5t8H9l3ZaLcSiQqAYAGHDXEAgFEtUAZAP0CMAJIFENQLZAjwAAADIOegQAAJBx4AgAACDjwBEAAEDGgSNImVSkmNvcTu/j1NDnkOpzBMPYZwIglw2AFziClMm6FPMoZa+TArlsALzAEUSSYRlqeZCtk/Lto8PYZ1Km4TsCICXgCNKGjdxPzxwj8wm/xjZ6Om2invLN+6Qi7DounojbV+dPc4i8tamTYtJNsv4Wb2u3tevMOn90L6mURzq1IsUcz6Rb7h8SHVhPLJsnmaP2GXV9YccbiKTfEQBTChzBmCCy0HkjF91y5B0MUZLR321Z7bh8te6sF8T4rvGrqZOi5i3QBMpeM6J8KutEwjqI++yl1P5EwrTsnEsv2evQfYoT4OuLktl2j8f7bfLxTnXsBIApBI4ggJHLULMBPmADWQqKTPmQYm/DJKMvsMdQETgbfT/fVNnwitZQCEGy13HY4W0VbOQLfN6DSGLHkdl2j6f1jwAA6QJHEMBYyVCzQYySjDaR+E/L2lEEOAQAAIgCjmAckEj3kOip7nB45KQ5Su8pGS1I3pudhkhWm9SJ3BFzf0svDAM+JxkT+NDqSQTKXkcQR2Y7Ej4HcYDjfqcSAOMMHME4wNH9liUn3d70yklHSUbL7Zruem4v4wVmHEAGQm8eWfVc4uTXzT7tgV/b0LppKq6TOZDtcYcw2evQffK1R8ls94S3h1w2AIMB0TnQF3IXjztZ/pgg5wS5bACSgx4BmFgglw1AOqBHAPpiHHsEAIDBgCMAAICMg9QQAABkHDgCAADIOHAEKTMNEseQaQYgW8ARpExSiWO/OJwxxIIYY3u9rcMTKtimH7SyH9SS7eI8eAWZZgCyBRxBJKOVobbF2qTYd+bIg1uyriYPnt3oPlDmF6szgm2vXxHN8nk0as52oumTL/Xx1G/CawAATB5wBGkjUg9DlDhWkgyHjiOQFM4BG3f3GDlHsM0Yf1rh02k62z7lUoqr2DbkawAAjBdwBGOEreNvy0jYiOy0qHVKb+E1G/lZn3EXNdKmFiqSSP4DXn7KDqONqB4AEAIcQQAjl6HWeFJDOiI3GC2etSOimpFljkCchCA9iEbZKwwHAAA2cAQBjJUMtUaNEXCRtNCGvovHjv4NJ3oJIuqmxxtkENi/PQAAwBFMEmzURaXUzNIVJuFc4PUAABAXOIIJQyaiEYnqHekVSLQfIuH885HaHAAAegKtIQAAyDjoEQAAQMaBIwAAgIwDRwAAABkHjgAAADIOHAEAAGQcOIKUOVUJZ60walRLo7DVTuMoksYB8tUATCZwBCkzKRLO13YdKYubKZ4j5KsBmEzgCCIZrQz1VAD5agAmDjiCtEkg4SwpFUmjqAloFoge6bSNm7LRKZ/AVI5dlyeypYRkf26aqI+0UeTxooB8NQATCRzBmCD6QR92iJYOuR8y60xAoyaREaOspSP8k88I/olpbL25pMg+12R/upB1PADA9AFHEMCpyFDrOQYEWzROZhaT+QdEP0jBrzL5TJuNvuSsDua5aZqRN1+i7HrN6hEcODUAgCkFjiCAcZShHhnsBZrsXGpWj0CK64gAAFMHHMGYEyY1ncvzey4yP8FTXffohneMQPg5oi4Q7l1Ieqra9wg5AGBSgSMYdzgSD5OaNvMTmLr2piNRbShZdY0Vb92jBWf9fTb6ZopMMyj8Je9fxiHU8aSETJsJAJgOIEMNAAAZBz0CAADIOHAEAACQceAIAAAg48ARAABAxoEjAACAjANHkDLTLsUMqWkApg84gpRJIsUscwOcEHbj5fd4vXr13ccvzwCY7e15BUwxwnJKxM4qtl5QVLsoIDUNwPQBRxDJ6GSolcBcQpaM6JwuRrNIuNly1omI3f0bXocS1S6SBNcHABhf4AjSJoEU84U0JEN7oKQqDlN4QjjB9QEAxhs4gjHDnkNg1jgINuCLVgpHZCFsjESEKiFyEN9tOSqmdtQfpx0AYPqBIwhg1DLUkndviiKc5KDYWH/Dr6/tVJFPDdQ/vaQnxaOjdYPRGlo74n3s6pWaqHYAgOwARxDAaclQi/HPbfCbfWc5DdQYARdJC23gDh8AQABwBOMCR+xV7hV8wL7mQ158yiW1gVitUiqzoMW5MwgAkC3gCMaBvBOxt2ad9IwMHt9nox0XT66fS5Cxv7DuyFDvWL2COO0AANMPZKgBACDjoEcAAAAZB44AAAAyDhwBAABkHDgCAADIOHAEAACQceAIUiYVmeY2t4t5O6etInpCwXTY9HGeIJiJkvVub9PCzAytjvrvDMRDvp+FbflZ9g0cQcqMWqb52q4jEeGXnYiDLWd92iQ5F7/MtjGoCu2k3DqR9O4FH1+2tY2xe15S59Njss9ZDHqYEY+qGy9Z7zZtL4zQ0GvH4si5TKODOabvF1boi9UXennI5NZpc65M+QQfJBxBJKOToQb986XWSVIPyun3SlRPnECeqKAluFXx6SyFIsZ4z2vwh86k/L2woXnW6dBuKoqz/NvKl2mu7si3dFoVOiou0JDkvDJDYbdOpeq9vj9HOIK0SSrTbEewbMREg87FF93GjpxD2pl0hKiY2k8XuxPXRB0v6jwj8E+EE/tcToG1FaJq394/IanLejvBy7YrnOgVS2ysdiNwOwp3hBbzVObvoVo09V3DbLezA07VzpeOkG3dY4ZE/e3te1Sdr9CGuV6JZkuHtFeTdr4ATO3Dvxx8PnLs1W273ml38jyd3s+whCT/uco9gZkyPeXPk6pb/F6WN+h7dTinp/Dn7WP61/aGrvsT/VOq2vv0Z16WOkXjT6r+a3ONut5pY23nUqCNClF5y/pQYgBHMCbcYqOaN2qgIhKn1wtSt2YiWy7EBjOOoQxrJ3ITsizpJFuB9BOtqRd1vKjzjMKksEy7Fu9T0ji9ziURWltJKa/60jlxkLkbWikK/42eKpWbm06kXS/RYXnLNaKFXR2Bu1G4YygdocUWVfh7KJkovfOMjM6i086pt8mtb1LpcI+U/VY0aL9aok3VUKL+Jm2a43X4C9ZRf6vJFnLuonxVLvnZeTps8h9HJOH7NFS5R/dY19dLVdrnCzxxnu0a7R2a84zA53SCnE8Qv93doy86FfpAPq8SG/uOLG/Rf9iHa37Nv4H/oi9a/0m/or/TtyeMup8X9HX+f4gqFWd/9X+nX8rlrpPQ5BZXaL66737ncYAjCGDUMtTyjR3IDzAoGpQfDb+s6UhZyoFTE80w2kWdZy+4rdlfPz2JpBgHU+PoXs3l0I9D4B/rGr+cZq9kMEpUN/mb/KzKdrk0Vl1jNpMvy1QXA1KgZTeSl98OR/qlZeno8MIrOrJ+P87vaUBi7LO0ue46GHFgzkfhO88ae4vKhnOeUeh0mON0uiWN9NgvfOLvrZ/lYyzTH9iw/0HeR9H4h2hTKuOvegTFv6vVv7zyOZDcRZrjLV/18fcLRxDAaclQB8JWucm/ZHs+glgR86jb9eAW9wDMtJn99CQGxTiEJUl59BEiXVvmHsWWXpgaOJouHlGlpQ0a9wg8TiIhBclF7NU4hmiTY1+1lWw16XC+Qi39+3GK08uQ6J+OXknc4SK9hPlZjhKiiNhnL7rn2aCt8lzv3oCQsEcQi9Lv6Lf6bT/M1aV30S09HUgM4AjGAf7bF/XRp/pX8eiGFTHzb6pfI6aI0e43c/y78s+VHNUu6jyj4O3Z9ruo2dL0e0PguaSFPn6uh43xwJ/DTQ6/3I/Bd+2yzwYvf6ht3tDQEXwqhkdF010aW/4eQY4u8vdw1E8oKeQWaYX2qNao8f8rtGjsa2GZSodlCkpXq/SFXcfXWazO04rb2ES0bdq+YZ1nxD57ou6q4fPc3u/2WnqRRo/g6C39S7/tj2P6/p4T9Svyv6Zf8cvRfo+7kNT3PEcXY/g5F74oEEq9wz0C/n/4/F+l05nlb0PKH/mAf+TXb3Vdh8Of3+s6VeZ5e131F37vrtdF2isi2il89X/h5aD1drvI84zg21K33e95HyfahZ1LBLIPs70pap98Xv717mcShbSzPyO9H9PWvnYp9jn666SEtbPretKqdDh27kjiPh6+v1nVvrtcL/G+ZH9c5iuVk3/f5niqzHe49yArO5X5bjtTPKdUL51cJ3j2x2W+Il+1g27jFHMsh1Zl3q07cZ4R+5Tri/yows5zWNS3O5/Tx7r8d+dv6kTfdv42z8ul/1Wb+GmWzPYfd76qPOnsyKs535azfHKfXdRn1+cFQoYagLFG7qApEtXTum1z3JDru0ezrXjpnYGRHta9WWo9644jTBfJPk84AgDGFLlpIV8+5IC3dTrjU6NCjHPRDPnKmNxuvLRN30y7U5WPcoaKVKdOnxcIRwBSQZ7yDbsrSQaJBx1sBmAQlIFkXzPVTlUc6v5y305AgCMAAICMg7uGAAAg48ARAABAxhmeI9APYqRy//Np49c6iSBMkwUMwBD/lpQ2jb1fOVZCKV8AJpXEjkDuaEhfciGJDK7cCeB96s8ITanBE0s4axTOKUyTJRJ1ngHn7zJieeDEhJxnj+s7rb8lOa7cYeEZW1MPHSWT8gVgUhlej0A/kTeM27SUFpD7Qy3QLh+n45GDcG4/a786onk2yF19kSbNleb7f3JyFFiPzbcqR1SM2QOJYjgGNiGDXN8w/pY4KLhRniNXk8ciqZQvAJPKUBxBZHpER+Wm3hgqZdwjZHANsu/83gq14lqFlU1aaWodFFqmDVvkxncunnO16zziXNIDsYyY2i6mUYs6nkVu/TH3KKp0jy++5+cSsU/RTNps5k/IBPfkRAQfR1Y43vcn2NfXi2H9LYm8QrjoWCFcyld/NmHfHQCTyFAcQVR6RH6A7mQUXMw9vb1kcLmlSgHdm21Rp4+nAucuFmhxtkm17S1q8nsXMSL5PVqxBLi6E2PwsXyTZvST6QlG9hktn9vF0XxR76I+l8hrcJDvorWyR/nYETifpy1MVi+paP6xOmD4NfT+/my619eLYf0t7Xt0bU6SRMoXgElleKmhEER1UEVp/YRUKvJzngjs52EQpXnO5BZnaY8DwGXbD9T26LC02TUOkhsuHZKSQ2/seyfNSIMhSPJGXoOFMoxis0Mi9NgMQ1Z4ABL9Lbn0EOUKk/It7CrHMoyUJwCnxcgdgROtcYS2vO8Ykzg/YpUjVpYs2Y9etXfGDXIcivae/GII9CWf26ZXR9Kbie/0olCpEuVHw45n4+i2l/Pa2Evv4LHugQ0gAewlnetL9LcEADjByB2Bi0RWknLxdL+jZHCdQeE6FfvPeQfgdP2tAUHuddyrzpOSQ5fJPNzZjHwyuIoQidwo+pDPbaxKfrtk9WCCP5fIa9C4YyraEfZE9nFkG3vL0Pe8hngyxievb0D6/lsSekzcESblq8cIxmYQHoA04B97ImyZWFMc5dMoydqTdc56i0AZXC9emVWR3fXuk5RkrXOsE/sXGVqzMqYMbqnulfYNl8jtIdcbJp/rOQ9rvU3Y59LjGuaDPsAe2FLFToknAawIOs8e13caf0tyjVGfjfdvzMLsM6gOgAkFWkPAi0S8Ko3U7UFIr0IG6adKrEsNtMvAd1BPSW5MCJPylecT8rS3MuWKoCBTnF5qCEwIcodNeuMVY0NunR7L8wwB4wqN1SJV7UF4jbktFU4ATBvoEQAfTsQr9+Abplm6V3o7+8vWXUDSI0oo5QvApAJHAAAAGQepIQAAyDhwBAAAkHHgCAAAIOPAEQAAQMaBIwAAgIwDRwAAABkHjgAAADIOHAEAAGQcOAIAAMg0RP8PBrpY2qJSMxcAAAAASUVORK5CYII=;" vertex="1" parent="1">
          <mxGeometry x="570" y="160" width="386" height="149" as="geometry" />
        </mxCell>
        <mxCell id="8hgxPUImvKMug2X6srkp-16" value="" style="shape=image;verticalLabelPosition=bottom;labelBackgroundColor=default;verticalAlign=top;aspect=fixed;imageAspect=0;image=data:image/png,iVBORw0KGgoAAAANSUhEUgAAAYIAAACTCAYAAACDBx4DAAAAAXNSR0IArs4c6QAAAARnQU1BAACxjwv8YQUAAAAJcEhZcwAADsMAAA7DAcdvqGQAABpPSURBVHhe7Z3faxtJtseP7x+xhCQsYbEC6/FDGBLCtS+XMA8DVgbswI4f7ktgmJFh/WBdcv2wwWF2SJgXE5AXvGAlG8jLffAMxIa1BPOQmR02vuRmGPLg0UIk5uYhMWHY/0H3nPrRqm6rS60fLUvq7ydUpO7qqq6WrHOqTnV/a6rJEAAAgMzyL+YVAABARoEjAACAjANHAAAAGQeOAAAAMg4cAQAAZBw4AgAAyDhwBAAAkHHgCAAAIOMMxBG8q3xBn332mUpfVN6ZvaNLdWWKVqpmow+knqkpnQZRX1q83iJ6b4roO35/m18/5u2skOVrByApfTsCcQJ3Xlyhuw8e0IMHd+nKizv08GWQSV8YByEp2H+KNLbmKU8V2lkwO/pgYadJzWadSnNmx4hy4aJ5w0x309YGG042nmJIVVox+5nv+H2w3yQxtoIY3ziD6ysnRPMfcRusMY+mJEa952sHIEP06Qhe0l+fnKPVz/N0Rm2fofzKDXr7g1j8l/TwzhM6tyoOgtNd3r/9BZ3qgKGxRTeLs1QZhBcYN9gIXjBvc45xjEWcQI6dXZ3op6ZJOybPsFhx8jhdM/s7EVfu0TzRKr+6eZ9Mc7vXWtuLnL9t3n/F+xPR7bUDkDH6cgTvKvv09sZHdOnlw1av/91ZOvf2mF5y3vPzN+ijS+bgM3lavPqGXvwonoCdxGcP+X+DGjlEt9uPJF4+5O2Km6/LqfDUFxVq+Zl3VPkiHKqqbhaJSuvkugEZIUzNb4ndC5CQz/yW3uOGf5KHgKq0MrXC/xvYAc2f2B5iWIkv+Kdn2hh+wq9fjqIf5I+7eshGPuJs+mYcrh2AU6Y/R3BMdOX9d/Rw+y3duHuXbpw/T2f10ICOj98QnTtrRgqaM2fP05vjTkMCGUkc06IKNUniPmJkJPH8BdGKyV+9+pxkAHImv0hX37wg5WeEdz/SizdXaTFvW1ClvfIcLV/nLqbD9NoGFQ536SDwBHJcgTbW9HE6/GNSvURHeceg9wQ7iVyNNmydTe4e5+fJ+J14Is4jdSfCl79ZIrrPo4L3uKf+2ux22c87oZqYY9rRrtzrA6Ka03MHAAyPPhzBOzp+e47O0jG9PX+F3j/D229427X8vcDe5S09p+2gx7/NW2GuLtpQFNGlTx/Qp2rUcYkuByMO8QPsLWS0orYss3Qx7AeYBVoqHNKu8QSNrXtULiy1Rg3VlZbhzRWJO6390XhFR1SmfGDM87yVgOk1ehY4j1ZKM8plQzIHy0TX2xj7UIjH9LqT0Gs5AEA69OcI2A2cYcP9Rnr+YsDPt0YAZ7n3T2+PnVCN2Pg3dL6Tp5D6zt8wk882fU5Bx97DpY9uEHsCPqeeu2iNBvwsrHPXd/eAGvzvYFeiR9a6cu89f0SlujG8PCLoe76xXqPDuRLVQwb9GZkBSDzDHhE4WIewyF6wnNL51KQu1590VAEAGBx9ThY7iAGX15c/0HN2DJfev0Ln3zyhv9r4/suHtP38PF153xrnt6SjRO+osvNElxUuXaarbrlukHmIcy/oxwq34erlyGhAOKJX7UIw09dpmXbpoHrA/y9TED1SvfcWMseQfERgz9WgrZtOuYUlKhwWabNbg3oKI4IQfC11fpnO6c2Bw9dxi73sqnNnEgBgOPThCM6osNA7MdzPt+mzfaKr9ITuyHyBzBCzUf589So93zYhHjWPYHv2l0g670/uSN4denHlBpe1XKJP1R1GNjTEKTQJ7OfS5XP05Mlzuno56gbCIaAw07S2MUvFfJFmN9YkPK5h47vBZYo53fu+N1OigslSBn5e9ueoKD3lvNtDXyAZZOhyOdpddsst0I6aa9DHqxSZrB4J+DqCOL4kdgC5ir6LxxKK9XNybwOtFcN5tx3HF1dOJnMXy+E8uX0UAJAufa1QJnfw/HDZxujjkDuE9uls4ARSRu5g2j9Ld4NbWh0kvKImandacwAAAJBx+goNXbrMPf59p7fORvjkQ2Pcw1/lXrrq/UtybhMdOOx0tnk04Ewmh+Ae/uPSEeWHEVgHAIAxoe81i9WTxU9shP8qrT74tE1sPn1kdMI+gM7fuEufdxh6yLMBe0tDjK8DAMAIg8XrAQAg4wzuriEAAABjCRwBAABkHDiClID8cYo0tCqqe7tqHK6aqXsLaz/guwWTBhxBSkD+eDS4tqOfipaH1QYFvlswacARJCKiJpoUNhJWRwfyxxMGvlswQcARpMVCS1CtG/ljCTU8MqEHSW7YIbpoiw112IVgpKwIwz0yxwWhEBNKiZbrRNz5FJE6k4RH+mqnm5cjqpndgtQXhIm6CBv1+rn0+t0CMKrAEYwg99nKKWXOipZqsEbNhjlUqhPV8608Oe5D3i/CcNUZooMS57/SebfZcK7acpyIyyWRbvCd77tNLTlh85MuEhPbTjHK3M5gIRxzPttOuYbgfJzHRfum188FgEkDjsCDWrRG6QGJVHRLOtouWpMWweIsbKhCBo97rLb3Gu0Vi5iRXelr4bp5I3BT2W7SqtPz3dc5nfGc7wI3TGkGca++K2LaqdYj4LxAy4hfV3m7IY3nduzPcdFB9rz7+VwAmDDgCDxMrz0zKp8Vtl8Fqqj3TXrWUTM6HW6z4b3F1qurXjEfJwu+HDg9X0mueFwcvvMFy0cuGUParUM4bfr4XACYNOAIxgXTg7VIaCY0IoiDe9E9rSOQ9HwSLxcnUW6FjXrhAo8OpI4gNMOv27ytZK9lZMTX8NTkPbp5si0/e/LakuRzMSOixHMHAIwpcATjggmVqKUj2Thtc/dcFnJPwpdsqCXebkMgiZaV7HA+WWg+qI+Pkfh90sXr28Ln+4rrsOeTOmW+QPXQOQXLZnJeYyPcloKTV11u3877bPSt/LU17B0/F65TRkH7e3oTgEkFWkMAeJA7kogdFO4MApMMRgQAtME+PVzn0QacAJh0MCIAAICMgxEBAABkHDgCAADIOHAEAACQceAIUiLLUsWQaQZgvIAjSIlRkyqW++mH9WAUZJoBGC/gCBIBGequyfK1AzBm4PbRRIgj2KOl5o4oE6SKSD9/M0NUL7akErb5G1JP7Ta0Qqfdv+g86CQhGFH1dI8TZc0LW0TXua4ooiGkntr11AkAyAYYEYwg+7tEm2zERQRtu8COQYYixmDHyTTHYcXhZIUuMfJRcTVIMQMA4Ag8nJYM9eJGK6wiawJID90r09wrfBlSHFLMAGQbOAIPoyZDPXDYC0CKGQAARzAmeGWaDT4p5t/Mst03K5YF8EgDUswAADiCcYF76bEyzYxPilm4ts7/FU1ZTtahQIoZAIC7hkBHIMUMwGSDEQGIBVLMAGQDjAgAACDjYEQAAAAZB44AAAAyDhwBAABkHDiClBiIFHODy5k6Tg3ThoE+R5BGnT0AuWwANHAEKZF1KeZhyl73CuSyAdDAESQiwzLU8iBbc8C3j6ZRZ69MwncEQJ/AEaQFG7mfnmkj8wm/JjZ6JmyinvLNRaQi3DxOoR53JC8a5hB5a5snyYabZP9tPtYt6+bZfdHevYRSHpnQiiR7PhtuuX9ItO88sWyfZPbV6bu+uPP1Ra/fEQATBhzBiCGy0DkrF13X8g4Wn2T0d5tOOU5fren9ghjfVX61eZLUugWGtrLXjCifyj6RsG7HffZSqj6RMC3qtnSSvY6tU5wAX59PZjs4H9db4/Od6twJABMEHIGHoctQswHeZwNZaNcz5VOKvY2TjL7AHkP1wNnoR/mmzIZXtIZiaCd7nYRtPlbBRn6B292PJHYSme3gfEb/CAAwGOAIPIyUDDUbRJ9ktO2J/7RkHEUbhwAAAO2AIxglpKd7SPTUDDhCctLcS+8oGS1I3JudhkhW29CJ3BFzf9NspAG3SeYEPnRGEm1lrz0kkdn2wm0QBzjqdyoBMIrAEYwS3LvfdOSkGxthOWmfZLTcrhns5/IyX2DnAWQi9NaRk88pSXzd1ulO/LqGNghTcZ6sgezOO8TJXsfWydfuk9nuCB8PuWwAegOic6An5C6eYLH8EUHaBLlsALoHIwIw9kAuG4D+wIgA9MQojggAAL0BRwAAABkHoSEAAMg4cAQAAJBx4AhSYhIkjiHTDEA2gCNIiV4ljqPicNYQC2KM3f2uDk+sYJt50Mp9UEuOS/LgFWSaAcgGcASJGK4MtSvWJsm9M0ce3JJ9B/Lg2c3WA2VRsTor2Pb6FdEMt6N6oI8TTZ9coYunfnu8BgDA+ABHkBYi9ZCixLGSZDjUjkBCOPts3INzTGvBNmv8aZmbU9PHPuVUSKrYlvI1AABGAziCEcTV8XdlJFxEdlrUOmW08JqN/EzEuIsaac0IFUlP/gPefsoOo4FePQAgAhyBh6HLUBtCoSHTI7dYLZ7VI6IDK8vsQZyEICOIajEsDAcAAAIcgYeRkqE2qDkCThIWWjd38bi9f8uJUYKIupn5BpkEjh4PAMgucATjCBt1USm1q3TFSTgv8H4AAOgEHMGYIgvRiET1towKpLcfI+H885E6HAAAYoHWEAAAZByMCAAAIOPAEQAAQMaBIwAAgIwDRwAAABkHjgAAADIOHEFKnKqEs1EYtaqlPly10ySKpEmAfDUA4wUcQUqMi4TztR0tZXFrgG2EfDUA4wUcQSKGK0M9EUC+GoCxAY4gLXqQcJaQioRR1AI080SPTNgmCNmYkE/bUI6blyNypYSkviBM1EXYyHs+H5CvBmCsgCMYMUQ/6MMm0eIhj0Nm9AI0ahEZMcpGOiK6+IwQXZjG1ZvrFalzVeoziZzzAQAmBzgCD6ciQ23WGBBc0ThZWUzWHxD9IAW/yuIzDTb6ErPan+Oig+x58yVK1avOiGBf5wAAJgw4Ag+jKEM9NNgL1Ni5HDgjAkmBIwIATAxwBGNCnNT0dI7fc5L1CZ6avEc3w3MEws+evLbw6ELCU+WuZ8gBAOMGHMG4wD3xOKlpuz6BzWtsaIlqS8HJqy6H8x7N6/332ejbJTLtpPCXXL/MQ6jzSYpZNhMAMN5AhhoAADIORgQAAJBx4AgAACDjwBEAAEDGgSMAAICMA0cAAAAZB44gJSZdihlS0wBMDnAEKdGLFLOsDXBC2I233+P96jVyH788A2CPd9cVsMkKyykROye5ekG+cj4gNQ3A5ABHkIjhyVArgbkeWbSicyZZzSLhVl3vExG7+zfDDsVXzksP1wcAGD3gCNKiBynmC4OQDO2Akqo4HMATwj1cHwBgNIEjGFHcNQRmrINgA37dCeGILISLlYhQKUYO4rtNrWLq9vqTlAMATC5wBB6GLUMtcfeaKMJJDIqN9Tf8+toNFUXUQKPLS4ZCPKa3brFaQ6tHXMeO2WnwlQMATD5wBB5OS4ZajP/0Or/Z09uDQM0RcJKw0Dru8AEAOMARjBrcYy/zqOAD9jUf8uZTTgObiDUqpbIKWpI7gwAA2QCOYJTI6R57fUaHZ2Ty+D4b7aSEYv2c2hn7C2tahnrbGRUkKQcAmFwgQw0AABkHIwIAAMg4cAQAAJBx4AgAACDjwBEAAEDGgSMAAICMA0eQEgORaW5wuYS3c7oqoicUTNOmi3aC9oyVrHdji+anpmhl2H9nIBny/cxvyc8yMXAEKTFsmeZrO1oiIio7kQRXzvq06aUtUZlta1AVxkkFeSLp3Qk+vxzrGuOgXZIX0WNy2ywGPc6I+/JGS9a7QVvzQzT0xrFoOZdJdDDH9P38Mv1x5YXZTpnpNdqYLVKuiw8SjiARw5OhBt3zpdFJUg/KmfdKVE+cQI5owUhwqxTRWYpFjPFu2OCnzrj8vbChedZs0s5AFGf5t5Ur0mxFy7c06yU6ys9TSnJemWFhp0KF8r3EnyMcQVr0KtPs9mDZiIkGXUCkd5u45xxTzoYjRMXUfbo4WLjGdz5fOz1EF8JJ3JZTYHWZqNy19++Rgct6687LViCcGBZLrK60euBuL1wLLeaoyN9DOW/zW4bZLed2OFW5SDhCjg3OGdPrb2zdo/Jcidbt9UpvtnBIuwdSLtIBU3VEt9u3R869suXm63In26lHP2kJSf5jhUcCU0V6yp8nlTf5vWyv0/fqdHqk8OetY/rn1rrJ+xP9Q7Iae/Rn3pY8RfVPKv9re40mX5dxjgtYoPUSUXHT+VA8wBGMGLfZqOasGqiIxJn9guSt2p4tJ2KDmcRQxpUTuQnZlnCSq0D6idHU853P104fNoRly9W5TgnjdGpLTxhtJaW8GgnnJEHWbqgPUPhv+JSpWNvQPe1KgQ6Lm4ERXdgxPfCgF64NpRZarFOJv4eC7aU3n5HVWdTldL7L9NoGFQ53SdlvRZX2ygXaUAWl11+jDXu+Jn/Bptdfr7GFnL0oX1VAbmaODmv8x+Elvk5LmUd0j01+pVCmPb7AE+1sHNDuoW2nh4jTaed82vHbnV36Y7NEH8jnVWBj35TtTfp393S1r/k38J/0x/p/0K/o7/TtCaMe5QV9nftvolJJ11f5N/qlWGw5CcP09WWaK+8F37kPOAIPw5ahlm9sX36A7XqD8qPhl1XTU5a0r3P8pFHO185OcFlbXzcjiV6xDuaAe/dqLYduHAL/WFf55TRHJf1RoIqN3+RmVLQroLoSGLOpXFGWuuiTBVoKevLy2+GefmFJBjq88YqOnN+P/j31SYI6CxtrgYMRB6Y/ikg7D9hblNZ1O32YcJh2Oq00iPDYL9zw99bO8jmW6Pds2H8v731U/0e0KZXxVyOC/N/V7l9eRRzI9EWa5SNfJfj7hSPwcFoy1G1hq1zjX7K7HkGiHvOwy3XgNo8A7LKZ3Ywk+sU6hEUJeSTpIhmuLfGIYtNsTAzcm84fUaluDBqPCEJOokcWJBaxe8B9iAZp+2qsZL1Gh3Mlqpvfj056lCG9fzp6Jf2OABklzM1wL8GHp85OtNpZpc3ibOfRgNDjiCARhX+l35q33TBbkdFFK3V0IB7gCEYJ/tsX9dGn5lfx6KbTY+bfVLdGTJGg3G9m+XcVXSvZV87XTh98PNv+ALVamnlvaduWQWHOP93BxoTgz+EWd7+CjyFy7VJnlbc/NDYvNUwPfiCGR/WmW1Q3oyOCabrI38NRkq6ky/R1WqZdOqge8P/LdN3a14UlKhwWqV24WoUv3Dy+znx5jpaDwrZH26Ctm047PXV2RN1Vw+3c2muNWjoxiBHB0Vv6p3nbHcf0/T3d61fkfk2/4pejvQ53IanveZYuJvBzcjGgI5Umjwj4//T5v1KzOcPfiqQ/8An/wK/fmrwmd39+Z/JUmuPjTdZf+H2w3yQpr/CUU0Ty/8Lb7fa75bzt9PBtoVXud1zHiXJxbfEgddjjbVJ1crui+4PPxIeUcz8jU48t6167JLeN0TxJceXcvI7US03uOzclcJ+MyN+sKt/arhS4LqmP01ypdPLv255Ppbkmjx5kZ7M01ypnU6hJlcLJfUKoPk5zJfmqNaaMTvZcmnppLsg70U5PnXJ93o8qrp1pUdlqfk4fm/Rfzb+phr5t/m2Otwv/qw6JUivY4z9uflV60tyWV9veut4+WWcL9dklvEDIUAMwFsgdNHmiyqBu2xw15Pru0Uw9WXinb2SEdW+G6s9a8wiTRXefJxwBACOO3LSQKx5yh7d+OvNTw0KMc95O+cqc3E6ysE3XTLpTlY9yivJUoWbCC4QjAANFnvKNuytJJon7nWwGoB+UgWRfM9FOVRzq3lJiJyDAEQAAQMbBXUMAAJBx4AgAACDjpO8IzIMYA7n/+bSJap14iNNkAR1I8e9F6c+49cq5upTrBWAS6dsRyB0Ng5dc6EUGV+4ECD/1Z4Wm1OSJI5w1DOcUp8niRbWzTfsDhiwP3DPx7Tytvxc5r9xFEZo/Uw8WdSfXC8Akkv6IwDyRl8ZtWkoLKPgRL9AOn6cZkoPQt581Xh3RHBvklr5IjWYLc90/OTkMnMfm66UjyiccgfhIx/imRBp/L+z4bxZnKdDdcehWrheASSRVR+ANj5heuc23hkoZd48MrkXqzu0uUz2pxVjeoOWa0UGhJVp3RW4ibQm11c0LiXPJCMQx0uq4hEbbdz6H6bXHPKIo0z2++I6fi6dO0UzaqOVOyAR35MQIJYmscLLvrx1p/b2IhEK8sNhCvFyvuf647weASSFVR+ALj8iPM1iMgpO9p7eTDC6XVCGgezN1anbxVODsxQW6PlOjg61NqvH7ADEwuV1adgS4Wgtj8Lkii2Z0E+lpj9Tpl89toTVf1Dvf5+K9Bo18F/XlXcolHmFwO11hskpBjVYeqxPGX0Pn7y+etP5e9kLaNSfpRq4XgEkk/dBQDKI6qHpw3XS3VK9QPxHYzcMgSvOcmb4+Q7vcOVxy/cDBLh0WNlqGQ+LGhUNScujVvfCiGYMgBUle7zU4KKMpNjthDz2WNGSFO9DT30tAB+GtOLnehR3lWNIIawIwSpyaI9A9Oe69Le1pY5LkB67ix8qS9WYQVHk9bzDNXe3Oi1+kQFfyuQ16dSSjmeROz4cKoyg/mqSHrnXbizlj7GV08NiMwPqQAO6Vnv5eAACJODVHECC9Lgm5hIbmPhlcPSlcoXz3Me826LCAM1nIo4575TlScuiymEewmlFEBlcRI5Hrowv53OqKxL4Lzgim/efivQZDMKdiHGFHpI4j19g7hr7jNfQoY5yErv9ehA6Lc8TJ9Zo5grGZaAegV/hH3heuTKxNWvnUJ1l7Mk/vd2grgxsmLLMqsrvhOklJ1upznahfZGjtzoQyuIVKWNo3XiK3g1xvnHxuqB3Ofpe4z6XDNcy1+wA74EoV65RMAlgR087T+HuR6/Bdf/jvyMHW2S4PgAkCWkOgPdIbVmGk1ghCRhUyST92Yl1qMl0mt9uNhuTmgzi5Xnk+IUe7yxOu+gkyz+mHhsCYIHffDG6+YqhMr9FjeSajzbxCdSVPZXei3WBvS4UTAFkAIwIQg+4Ny/35lnGX7pURzd6ScxeQjHq6lOsFYBKBIwAAgIyD0BAAAGQcOAIAAMg4cAQAAJBx4AgAACDjwBEAAECmIfp/92nr27dstIwAAAAASUVORK5CYII=;" vertex="1" parent="1">
          <mxGeometry x="570" y="400" width="386" height="147" as="geometry" />
        </mxCell>
        <mxCell id="8hgxPUImvKMug2X6srkp-18" value="" style="shape=image;verticalLabelPosition=bottom;labelBackgroundColor=default;verticalAlign=top;aspect=fixed;imageAspect=0;image=data:image/png,iVBORw0KGgoAAAANSUhEUgAAAOIAAABmCAYAAADWMU0ZAAAAAXNSR0IArs4c6QAAAARnQU1BAACxjwv8YQUAAAAJcEhZcwAADsMAAA7DAcdvqGQAAA0BSURBVHhe7Z2/byM3Fsefr9l/ILdFgNw2koH41N4BkYMASSe5cREowDXuJCA4nHWFOxdbuHNxchAEsDo3AWJs4cZSd3cIYh9waQUFWKlJkS18+wfsVjo+kqMh5wdnJI8kjvX9LMarGQ45JIdv3nsccrgzE5Dm/fv39OzZM70HAFgXv9P/AwA2CAQRAA+AIALgARBEADwAggiAB0AQAfAACCIAHgBBBMADihfE6Q19t9Oi7y7e6AMmb+jH/Ra9FOG8JZ4z/CY9bFlWkeYj+KUT1sHLzs/66BNjekH7Ox0a6l0Xw84O7eyorZMnwhqY52lNGVqzRvyQPru7ppeTv9BzfcRf9EOjYEF5e3FCP/Rf0BcTUQ8zsV3+SYeskyF1dMMPNy00w474vU8XU3miFqjVCkjjckaz2YR6dX0gDzKfCfmfM6WL/SXzLcp81m/TYCbyddnQB1eLf6Zp42+ygX59/KE+UACrSHNJ/jf+Vfz9iH5fUfuboUGX3MhmA2qLf7LBzS7FUdEGX4+oLgTi+lZJ4vR2TLV2nUavA8n0iHqPJjLvM5r0RtTMqYEzmYzpvr5HVb27DtIFUZuYrzrKrLPMqKj5qU2/V2YtjF/Jc/KbX1lmqx3+cueEfsxsG440HeVTpmOX/nkvdvrnOty4no4bT1ddj/dZ86nwb+gXHZpOtGzR8jvKnpqXR9A6pdb4VuiUKd3SIZ3s6eOM1pCBJrI0jhlW7RJXn4I1sCEkC5itzusZVI6vhEbt05lQ5dOLfXFulboiA/1mEDeu5bPSXCeZGnHUJ/qKTajBp7JRWsLm4EHE+3yheC6zlRsiC8anKi9yO6fPMrVKtikclO+vvRcin9eygX98yen36As2ldpCoKzr/Uyvqt8T9XrquCjfQ7cbewj9m/6ur/sT/csQzB/E9Ugc+8ESKJ1PXTbOy0P3HzrMVfYceVmC2m6DDvbGdHtxTmPxew434Oo1tSZKC80mPRo1gwYuhE0IX20Qhi1iaSbDaY7pVGs91uA0v16UCu3W9K/jO3GuMnXbQX5md3TMdeYsg0FtV6S4PjIF8XnvS/qYfzQ+IS7nw+t8T9xl4yUy/S+NxNNtnmaBBGl+sPuR+PsrPUzk4XSG/6GR+I8bvNRCzZ/kYbN8/BD6I5vBlUP6WggIm8QfHAvNKn5/1eYzAqEKHyahBm3Rt102XzWusufIy6JMxkqPVQ726LpLdGjK4e013bdPVYNmKsd02r6nMdfZ8Ib6wlQ8KdKlmr4W5esLkzPQXk2x9zicZZCaW1zn5nBtvmFAfh9x+hs96J8LsWw8z6kNAu2kNsv/bH+y2ANDmPYsfM+1ZpPaeQGceVkW0UDvtN9YEarmXrXU9SJ9tdAPtDRbjCkJ91YossfoMeU7T/bO1tZbGpBbEN/e3gmBekG1g+hNFqbTmXoSJ5EebwEqf6aaMDMeuq9y+FsFM/qN3uqfkuofpJk7uin+tcPzXa6jNzS+NjSiq+wrzEsSlYMW1ftnlq911q/THvdqVPeofn9Nqo9nShdHpo/IjEj19ySFpdA4pPZ9l85zyMSwwz5h29DgylSNdjI5y6DhB4+IKHK6PjIFMTB7+IldG2hTSphcnwsTS4V16aEV98ES4wUdC8KvYS0ZnKN8GuHvpIaxD3UiTNzAt+ItT2eNK80sxDVPhX97/z19a16PzU32/eadOHnz4qDxpfRHR01OK1qfjrIvnZfg9QWbeoHpx50nSqukwlpyUKNuVZuK0tfSGkqEXfVIh1VpfMo9sgENOjHCrls9I0y9Zoh2riiFJDSU9OHUMbntX4QCIoS0qo83R6w5lQYPaKiL6rjaD3SVYYOkz9BnodEdAT50+wOwNvgd5dkeTe6O19Zhk99HBGBbkGb2mNbpFUMQAYgizWweICBM1zV12uDjUQB4ADQiAB4AQQTAAyCIAHgABBEAD4AgAuABEEQAPACCCIAHQBAB8AAIIgAeAEEEwAMgiAB4AAQRAA+AIALgARBEADwAggiAB0AQAfAACCIAHrAdgqg/se7Dp9U3hqyDfJ+5L2J1Jk7DisvXN7/ABiz8EkQtMEEjsL8X8ojVfUpBSvnKsjqTAa890aQBWR/LrhzTaa1L1ad7Ax+FP4LIDcxck4C3oj57zt+yFOmt+SvqhVCq1ZkYcR+PujUaJFR243JAbfPjvmBOKUzTrNV9pBl0YWrT0ARLN7PUCkUXMm0Vvm+2kNj6e5HwNFzxIho/yE/m6kUlWp1peN4l6p1YH/oN0R8aTvp0t663bVWY/gii+aXoiC/hXN1H078mutKadNDu042+oW4zq0/d8alKb9Cm++65boyioTZH1Au0swjjtfiuMj8H7YonwlJWNsoqX3lWZxrSTb9OrYP0elKfvL8RZwITrzSiapAzmrSu1afUF3Du26fhV5lZ+PKZoW2am1D8UVn1azUsubJR+VZnqpFzHZjKrjgjWAfDoHEp730Z3Yci8NI0VQIp/ImcC5AUT4MORYOer4/AWu4qz+fXHfEWWtkoAennlml1JrAI/vqI8ulrrtKTvLrPShAm35lc1GTBxuaKl7my0eLl83N1pgRtZyLva4LW1D5iLj/8KSIazJx3797pXxtg0OYvjlub8JdsJr2ZMB91eH0mfDGJcMXi50omM+F3WWmG6Q5mbWqLvxqZdrjPadrxjHMdOONZ+RdbvSdyaBArn8p/rGxcV8FBq97COmEmvfo8rD2wy2uG1Xs9I8xVZxzsLgOXv25mIoK8btLNCtJNCtsC/BFEn5CN2xa8rAYmWTbeUyLyQLPhh4H9sAhRD4CtqiuDUry+2DzcG7jMarTLxisxsvd7RM2E9xDDTpP6ZueSJnh9c92a0N22OpxaICXQiAFx8yzfk3rZeE8PtgQsK9M0p0EMrAYFgAfANAXAAyCIAHjAdgiiHh+5reMYC2cV9bnCe1SGKVl+CaK+GWr4lNjs2tviaVBGneQdnO0dm7l/ZZmS5Y8gshBiGlQyxrCyiVzbfcPCuIr6XEWaok2VZkoW95oGbPT1hXwRnPyy1xwFEm6RkTU9c8RH+EKZw4I4du+5GmnSs0aYGBe3RqwkhKfhihcZlRLkx1k+Ts8avRJ58Z2SpiQSFs2/WTfROiuyPvPcv+B47A1Havky7p+A040eM0kd5aPvYVLQqvDqPeL8hkWHfklUA0yuNzuObEjWeUlx+UaKeMFBWflBg4uMAIkJQxqueKrhhFmInJtWvoRrhw3MnWa8HkJknaUEFlKfsQdr+v1TJIRH07D2I9ez7h8Trd8EZHpmHI1My5XX4vHKR8Q0qAXJSLO6V1cTjeOOp5w32HPMkXp0fVYOqFXXU7KWxDnNS5J1/8ozJcvLXlNMg3IxpdcjPWwuI83gwTY7vFH5ebo9XaXH39cXmAaVyLDDn9RoqwnCuaYlCfgJzzP05zPjq7QntFXiJyuKYnge5lNS8DSvXJRoSpZoMHMwDSrcl36SFS/Bl0jAGc/Kv9iifmdS+aL14oxjhsfLbtdRNNwu+3L1aR5P8M8S758rTYFVfjNN9/1juBxLddYE+UyuhJXgjyD6RMzxz76pkmXjPQkiguEDCcIZ4urMUQ+Hdd43f01Tr8A0qFJSKdGULC2QEmjEgLi5lO/puGy8p4CHGlETM7XZclmj2ZkHTIMCwANgmgLgARBEADxgOwSRB5TvPOWZG5sBKz4Vh1+CqAVGjgKJjQTZ0mlQNKSOWSfmmhiP4nH1WZbpRWXBH0FkIcQ0qBTq8/U0Jrw+yNGGtY64V1jxqWC41zQA06CMi0dHtETD03DFs0aWhPlxly/y4jn6kjolzaB89nlqP6s+09NUZA1SSB2xousmKWjb8eo94ryBRIdxSdQ7uuT7a8eJvTdKjMsNVcQLDlqjYiKNn8MS8xTFFS8iGNFzU8tnnyfLGpwkBSYqQMF+5HqGICpc13PlM7qfQOxaGghiKl75iJgGlUY4o6PJg8p1nrOnCS1Brnxixaei8bLXFNOgomgfkWdQiDo5WqUDhhWfNoK/ry8wDSqOHDtZny+omj1NyLXiU8r1sOLTZhANZg6mQYX70hez4iX4PAk441n5F1vU70wsX5KPZnSWWPVm+25mp4y94pMmpT6z8sllXKqzJkgXTmIMfwTRJ2TjthttVuOTLBuvbEiBSnswuTpz1IPxydVHAfhrmnoFpkFZlGl6UVnQAimBRgyIm7T5nuLLxisnrO0tK5MtApidS4FpUAB4AExTADwAggiABzgFUTnYO/geJgArJoePyNNwzmhvgtEVAKyKHKapGrb1qPGLAAAn8BEB8IDcgriWMZ4AbCm5BJGnFV3RERX3mQYAgEkuQeSPBB0JUcR0GABWQ27TFJ+NB2B1oLMGAA+AIALgATkEUS3znH9xSADAojgFUQ1xS55fBgAoDkyDAsAD4CMC4AEQRAA8AIIIgAdAEAHwAAgiABuH6P+/RMbFH/4+6wAAAABJRU5ErkJggg==;" vertex="1" parent="1">
          <mxGeometry x="250" y="400" width="226" height="102" as="geometry" />
        </mxCell>
        <mxCell id="8hgxPUImvKMug2X6srkp-19" value="" style="shape=image;verticalLabelPosition=bottom;labelBackgroundColor=default;verticalAlign=top;aspect=fixed;imageAspect=0;image=data:image/png,iVBORw0KGgoAAAANSUhEUgAAAb8AAABhCAYAAABGUK+ZAAAAAXNSR0IArs4c6QAAAARnQU1BAACxjwv8YQUAAAAJcEhZcwAADsMAAA7DAcdvqGQAAA5vSURBVHhe7d2xb+PWHcDxn7r4H0hvaNFmkQxU9ZoCpYsO2SQvHlIFyJKNAoKgVoF6M9AM3m6hgqSAtd1SoMoB9WJpC5CgVoF0FRTA1BIUyXDJH3Ce2PfIR4mUSYrWSbal9/0c6KP4RPI98pE/vvfou0qgiHJ7eyt7e3t6FgCAnfYz8zcAANYg+AEArEPwAwBYh+AHALAOwQ8AYB2CHwDAOgQ/AIB1CH4AAOusN/hNL+XvlZb8vfuDWZD0g3x92JJPVLqeMr8z/DQ/bVWb2OYb+LY9PwaftP9rlu6YaVcOK20Zmo9Fhu2KVCrR1C6zwmMKy7UF+dwkcz29tPkYrMO21aUnck3Ptr2GDT9gy+8X8sfrvnzifyDPzJKnywTqNQenn7qn8s/e2/Kur45DoKaLd0zKQxpK21TM+WQq9bCt5g+lOw2/+CAXaOMikCDwxXPMgrJM3mZlsDoiJW2m7q5XQR3MSNv4qd3lurRN1/QyKu/nPVcGgdr+RcMsXN3T6vZs/DkMCh+d/MIsWINNbHNFP06+Uz9/JT+vRp8fR0MudOUJBuKqP2FFCi7UUlW3bsbiqArbv4qulOnVRA5cR8Y38ZXzROgLuNaXlq/zbqY1XAxLVU/kWu3rIXa12/LrYCRepqaBK71muRbHSnawLk27h7MAvjXXtKLzfTiL0hn8iYycutTMxzeVHfxM9+XLdtTFkeqiW+zazOoGmbwMv1O+a29Zl2g6/ZPKqXy99NwVbLOgfFG3ZEe+HKkPvecmPbE/s+7d7Ub70591Cy9K/1S+Nan5Fsu2WP6Csufm5Q20zqQ1uZKp+nMlx3JaN8u1hSfk1NNjMq3WEX34IvpJPnHzCr9X8mZWtL8iBevpbpN2N5ke5SW8YRx2Vann9Hfji3FZV04yfd6KUVYuQ/a5jbvNZ+faXH+6/q5cdwuuh1C8Dz01/20WGsm0xfXWJXHDSx/nheO5cKxTN1JL6pJet9ZviZ+MqltyTVdPruVsUrtz7DZGPemEXr9+beYU/1/B5/Kn4G/SDSb686Cr5v8UfKEex+K0z73vdUpmWuZ6scX1kzLTvg++chLbvK+sbS7k80fvr2r+r8FXfpQ826f7jfkc+yb4IrmtVPmidT53u8EXOj2x32j7en/JKbm/uXReispelJcyBoF66lY/53zPCVy1wPfcwFNTNO8Ejqcy43uBI06gZ82XE5/1tiT8fihMi7e9sJ9UWswPPCexfmgxf/rzfP86X7r6iuOptZOK11MNidQ6+nO03/T37m5Hy8qn2ebiwlBxXvIVn9t5HYm+l66nK9Tdouth8fpJ5SVr//eRdYz1MnU8Z1PB8VqoS/Nzuaj4POxGXdKfJbpWE7bpmo5F52Nxe8rAzTk2qyns9nzmvSe/0TON38uB+uvVTbmWxarrZZp+I2P1yDHb5hrF23xr/1fq53fyyg8X5xv+R8bqr1edTuopOFm+Vz2R3+ou1uqxfGS6W986UU/hav59VZtE/iDv6/G+4Ln80XR/zluKLfmso7tGjaKyl8jLffmT6NmuelSXfkfkOPHwOL3qy8g9k5O4y7Z6ImfuSCb6mA0vped4crrOLpzpjSpfT5qzp8Sm+jSnnxJV/RW/1ZeaTo+fFpesp7lnJxIXQ49PRA/JDTlW5Zl1D3XPpeceJ7ri8gzlsueIl1X4EnnJtOTcvnXyF3nX+U6+rD2XsfOBfFxm7LhEfcm6Hn66upZX8rYcHGUNG/xSnulxHdPKXN9LMIluT78l/VpizCocwzLHM9UaEanVHek11fLFJtGu16WwNdUUddDkenaBRrbpmo6F52Mg6nvxeTfjwJfHa+2SLjfmN/1eXQArWHW9J+5gYF5YMVNqPNH9/f2C9PDTMOA987xwWx97b5uEcgrzsqpwPCIag6nuH8govBoeWNi/74l6KIxuguF0Pb9QjejGNRB31JHn+p5Xcr0sjVNPD45E3UN9yb4J3ccb5EXbxLld7zbNS2zBafiQO27qB7gyXf33UD2S1uzFCXUTbI5FtRSiY+l7knynIg5iwfFldHONg+Cu16Xweg2jRf7LOlt0TYfdxmEsj9OiMWK/fr7Wl5FKBb/8p78f5OvzhTGAhOKnxpKqv5MDVcNfdV6u96IqY/y9/GRmQ7Vfh2+qji/XP67xbF8fox9k0k+0/IrKvsG8ZKketcTpnafeGjtXT6l1PRhTq4sz6kv0oDuV7ofpJ3KVS4nG17PScjSO5zehZcInSpOX+6y3SN9oRZVjeKV+tuSoxE1OFV7qzkg6WTtcNS9Lzu237Y58KarFp4PO6B/yWdY425rqbrpXJO96f0feU4E06tn4n/wY15F1mKpzMTqQfX0uwvM8N3yeU5caF1Fg7F1G41BW1KUoQAykWXrM7Cle07Mxy9QLUBEdtGV8U6pspajoG8oe85tPybGkiZtY7kXfTY8dZKyXkTZPN2MHmWnaYnr2eFlawTYLxzEMsyyaEvu7U46F8bmC8Y/ouC2O38XjetEUHc9k+QrKnpuXIlFfvj7180n3r2ePQaT62fX8bJ10X/1s3ERN7iDdt59MczwvkRbtM06Lp/Q4QyItHl9J5SOaUvnOW0/JHxcyzLbT31mSzzvpifGKgrwUyjm38bU3q6txPU3Wu/vW3SXXQ+71nnGNpa6hXHl1MCstXc/CMTGTtqwulaoTO1iXwust3GC0rTt51PmKF6bK/4jXdJhkxiLz6LyWvX5KyP6f3PXbX7V/qLa6t55uNAAA3oQe7z2vi389H2d9E0/r9/wAAMgSdsVOZF2jlQQ/AMDTVz2RF944elt0DS++ZHd7AgCww2j5AQCsQ/ADAFiH4AcAsA7BDwBgHYIfAMA6BD8AgHUIfgAA6xD8AADWIfgBAKxD8AMAWIfgBwCwDsEPAGAdgh8AwDoEPwCAdQh+AADrEPwAANYh+AEArLM9wW/alcNKRdbwv9c/vrAsbSlTlGG7IhX93/bvStkfygbriz4nqe3qfR12ZWo+Anj6nkzwm3YP5bC77tvHVLqH970BDqVtgs18MoFq2FbzhzLL5gME5MZFIEHgi+eYBWWE+czI/8wqx+Ux5OfzseqL3m9TBnLRMAu06omcHXSk9vQPKABje1p+6gZzHQTpm86a6BtaZXbjasiF2k8QDMRVfwbh/IVaqr53MxZHBaH+VXTTnV5N5MB1ZHzzBJ/5HU/8MO+B+N5YmiVbmkU2E3A2ZBP1RT3sfNg5kEHGRhsXqr70zucPRgCetK0IfoVdf6b1FafHN+cwoFVq0hmJ9JpxeqLVZuht1/ot8cveJVtn0ppcqTbCVK7kWE7rZrm2kJdUXpNptY6obBm6pZkITOH3Sgaqov0lVE9eqJZjT85V4Zcel4JtVk+u5WxSk8p9u/jutETn5ylvf2XPX5ZN1Zfh846Idxo+CN3VkFNPpPM84ySY8uedHwAPbyuCX1HXn74hHQyiFo6erk+q4XJ9o47XcWfp12KSlah787zuS3B9IrPFSxzsN+SoPpGr7nOZqPkZfVOt9aXlm335noyb8c1T7UsFvFk+Vdp9ejGz6W1O5MyUW7dUZba/RVXZPzBzRcelsAwRfS78Vl9qpVuSKp/NsXjxNgdu2Cp9Ee4wvwzLz1++TdWXy54jraP8DFSPWuL0LkseFwCPaXu6PXPU6k70pH6fx+rw6b8pom5y8c2vDH8StdeqR3Xpq0bAcTL2XfVl5J7Nb5Z6HMgdycRX88NL6akb/mnJxmUp0xsZS0+apgVTUeXpmaRVFZYhIQwUOk6VbInl2kAZllmpvswcyH5Rdanuq2+M5U4veOMiDKab6LIHsJqtD37RE7t6Sj++jG6gZW5q4XhQePde7SYYrh+NA1ZVk2q0GB0egj+RUWJc725LJWkqN2Pdai0f6IuEXYThs0OZllhDjlUA7dRMgNOtwBempX2vMqzHSvUFwM7Z+uA3o5+udXdiqtsp6u7LfiElerFlIM37j2FliLq8Ei88qNblec+Rek3N1+rijPoSvSczle6HyTE/LW4tZKXlaByLO+pI1hDTomFbj2W5iZZq9nEpLIMxGyM1wX8pvY1xMsAlgtvSMhSdvzd07/qiZbTqksKWbEbr0Iz5bc3LQoAN1A0p9Pr1azP3OHzPCXR2kpM7CFMCz0kvL0qLlif4XuDM0p3AU3fhReG+ZysOAjexvWhy1dJoX3e2P3Dn6+r52TrpfSXL5w70PvQ276Y5npdIKyq7Tk6WTU2Op9ZQUvlILE/KOy5LyuBkHcAlBm68vXialz23DLGcfD5GfdHlKCp/uh4lxNvMSgPwKCr6h7rQ5fb2Vvb29vQssD661RN2kc5birr1qF80us9465MQvhCkX9DJavXqF6jOpe5nddvq3x+sSb+1hWUGdtTudHtiS+i3Jtc3/vigqifyQv/OZMY44bDdlF7yZSEj/hUKAh/wtNDyw4ZFrR79+3Mxx9vuQKBbrpfHibc3dev28lgCXucEtgbBDwBgHbo9AQDWIfgBAKxD8AMAWIfgBwCwDsEPAGAdgh8AwDoEPwCAdQh+AADrEPwAANYh+AEArEPwAwBYh+AHALAOwQ8AYB2CHwDAOgQ/AIB1CH4AAOsQ/AAA1skNftPuoVQqFam0h2YJAAC7oRIoeub29lb29vbChXNDaVfOpe5fy0nVLAIAYMst6fZsyLE7kolvPgIAsAMY8wMAWKdU8BvfTM0cAADbb2nwa1wE8kI+lErlULrEQADADlga/Ibtigp9LyQIeOkFALAbSnV7HuwT9QAAu4MXXgAA1iH4AQCssyT4DeWy50i9Zj4CALADcoNf9M+bNaXnnvGiCwBgpyz5580AANg9jPkBAKxD8AMAWIfgBwCwDsEPAGAdgh8AwDoEPwCAdQh+AADrEPwAANYh+AEArEPwAwBYh+AHALAOwQ8AYB2CHwDAOgQ/AIB1CH4AAMuI/B9oFpltOXL5PgAAAABJRU5ErkJggg==;" vertex="1" parent="1">
          <mxGeometry x="1080" y="150" width="447" height="97" as="geometry" />
        </mxCell>
        <mxCell id="8hgxPUImvKMug2X6srkp-20" value="4. define el metodo en el IService" style="text;html=1;align=center;verticalAlign=middle;whiteSpace=wrap;rounded=0;" vertex="1" parent="1">
          <mxGeometry x="1080" y="80" width="110" height="30" as="geometry" />
        </mxCell>
        <mxCell id="8hgxPUImvKMug2X6srkp-21" value="" style="shape=image;verticalLabelPosition=bottom;labelBackgroundColor=default;verticalAlign=top;aspect=fixed;imageAspect=0;image=data:image/png,iVBORw0KGgoAAAANSUhEUgAAAQwAAABDCAYAAABp9TueAAAAAXNSR0IArs4c6QAAAARnQU1BAACxjwv8YQUAAAAJcEhZcwAADsMAAA7DAcdvqGQAAA1xSURBVHhe7Z1NTBtJFsf/3mPmuokQYXdysCMtywFFsGjMaEZztDNSQNplpb3kkrSlibT4MNyISAQ3Lma1jISTSy57IJFCpGBuq8lo8YoQjTh4vFLsQyIBQjDX5Nr76qPb3XZ3u2xjMPH7jXpw9+v66q569ar6VSVmE2AYhjHgN/ovwzBMU1hhMAxjDCsMhmGMYYXBMIwxrDAYhjGmZYVxVHiIu3fvyuNh4Uhf7UGOCnhIeXy8p8+DkPc8RtQtDMPUaElhCGVxf3cci48e4dGjRYzv3q81SN1AHWUS2VAZhrmQtKAw9vDy+VXcW0hjQJ4PIJ2ZxsEboRn28Pj+c1y9JxQJHYt0ffUhztUAGUhjgfJyZ1SfMwzTMcaOW8K6WEMGC4MvcXd1R16buHcPeHGIsfFdrB7ewiNP69x7fBcvBhcpxJqySlxFU5MtpOmKsExI2exr2QQpHScacd+bQVI+zx35BO49ugMhbibTWfTFJ6lLzxsuKi8Mw7RgYRwdAuM3jvB49QDTi4uYHhrCoNYAh4f7GHJONAODQ9g/PKKO/hYm9nfxs2tt7OHNzgRuCWUhLZND3JJDHHGQAqqzTHZ2gYyW35vYgTRoNGGy0TvimsijOq/RaAnVbmmeF4bpdwwVxhEOD65iEIc4GBrHjQE636dzv44IYRRjE/vY1RrjqPACOxNjuken+LCDVXfuY5XO/EzcqlkmQhF4e/woWSB7b7AzNI1vg+4zyAvD9DvmCoPUxQA1qv2r6u/BEP3V0kFtTXg58lgdo99OgzQGxXKEn8kqmHZarIiPGrCaRHWOBUjj46zppbwwTI/S0lcSF9G4xF/RY5MCGb0xjqGdFzXz/aiAFztDNITRrW3gBsZBw5K9n+n/wkJRlzE6RsOV53h5Vl9UBgYx5A6PjlBY88xlnHVeGOYCYjjpSY3r4UsMLozhjTDVhyYwQQb7zv4Qphd1L7z32J0MBTzXHbS86SSk6OX1BKmc2BwLHmqEy0Re7+N5bVZT4qQrPw1roZy0XX2DsZBJT29eGIZp4StJVONlGKY/MB6SjI6RTfGiQP23hiwGds5imP6ipQ10vOY8GfQ1/wWGYfoC3nGLYRhj2vtKwjBMX8IKg2EYY7qvMKob+CE2gx9WDvUFL4f4aXIGD0gujsB7tv4RLusG1RVMxmLIbOnzi4wsSwYmRdnKxBCjcovjkyj7WdHF+iLeiS9ekdbkCqr6tFXcd9xBZs/ZwhjEV9vreFD5G67oK92mujKJyZV2H3kYVaxMtlpptpDRDbR26Ma9laHfk3CzeQZKLLVmw7YryCX1BRNkPgPy79LOczkPwvN5XvVFpJtGAWspfUEQn8X8SBaJdh4o1aGlvIWCTe/ZF2lr9P6QJPV3PLDX8d3soL7QZeilbNND7eCZhiIqQU27p7AmXp5dgEX/yRdpr9FVuu9tCUlquOubqqJWN8sYsZIovT3tinsKJHOoyLzbqORKSBtaNFF0p5F2iW7UF2rct7MjKAREmlqj+pJfqnUmplTKKCaHkdCn7WKuMPTQ4llGDRHkkdn1ydxhgx5GPPPWnPIzeY8vXCTNhit++YPYHH7qsI5FmuW6l3fkToWWSiCWQLYI5NOO3GMdaETcifUZVExr1sw8Zsqb1BdVsYkpzA3r64K6vPjy6pUlsqBsaYRF42nM8j7Dxh2Vnof47BOyUPJYosI3fS4RccZntzFfTiDWqvndYPHU3lNYeqbvL4hu1Zet5SyQm5OdRyMpzOWA7LLRmzt1WrYwSnngr9TjPyh8SSVe9iuFCI4p3DcthYsarghlkcW/i1+qvMhjGV/FtbhNosxy8RJHCqonFcf2rEpMVG4njOXKt6HFhBp6LA1XYG/PwjSLI9dTuDlcxubKMsr020VUxMQ6Zio6rUoOpbRT4SgtUhJuPknWyggjGBFnGfO63MIigptePXFcH9G/op5LZBkU4l1UZtaRMLZYKJ/pEnJOnAVLWj9PZILhZWj+/sLpVn3ZyCcxczM8A/GbM0jmNwyfi4eR68b1L4yWFcaV3J/xB/Ej9QVE3Th+azYZ2W64QKqvUSIN7cZ5BiSGk6pHCOteg5C9TBo03nArjAmVsrIL4jeHsU6dzZRXX2yuo2jN1yqYGNdaRZQr9HtrA3lqJHOGRowR1bcoIU9DDac3TNNZZ0SWwYNsXKJtG/b4oXShDM1oq764jOB6VHWJX6c7SjAboaoOK7Yx1dHchUP7cxjVAxzrny3RbrhzRvUM1BtMbahKZ1IR5PhW1vj2Ko4Mr+Y14tR1F+tb1Fkgx761eYrGHtFLFW9LoiMzV45RSPNd6luTHj+FKVI62YRQCHQIa+OJtuhaKsPp0FZ96QpqrqwyvHQqeWhbYfy6uU0N/3OM3KyfjKThwtJ/9O9GwsO1QPxPGCGT7jj7DP/Tl86M1Joy9X0moTLFgycl1QsrIN36mDwAZY56Jr3IilkiE3ZYzGYlhpEsrkPNlVaxcts7hyFweqUgWQipKVjFLEyGzFsZMTa3PBZR8HOJLIPGnfPRCrMpIo6SVyl4FELTMkS9vw5pub4ImlgP0mJqYoXUITocSrDj+icerhmV5/Yq/mIveI6nBS0jypbnek7dK+VR4QJkNflr+2moTFAv/95+RbWlGZVcUrjC+w4aSwqJTeNKY5m67qGSs0mHaXnSprF0AzJtN2DBplG2L04a1dJVlVZD/AWrFlb8dsP40/KWzyqINEScjbJkLueRRZVdiL1loyOZoxCELx+e617CnkuTMiSDHmATCpYTn3PUyh5aBoeQfJ5HfRHliCq/vx4ZIp530PtpkZYVxmruQF9gmB5CKiCPgiCaNbyeRSoTf1lqiE7Ar2CMOCWF0f4cBsP0NOJrw+nNp5wp8Vk8ET4tAXMOW5k08t4JY1PkcLWMTmfBWGEwnwapOQgfEO+XkFKu0hUHvLNATJqKeS+fztjKSO/Ptr52OEqowwlYXt7OMIwxbGEwDGMMKwyGYYxhhdFvVN9jMvYqdD1I3yK9csPXyXSC8CnxxSvSOgWfnPPgE1UYemGa0SI3RvERK5MXXZH0wTL1c4YtjH4j/jm27a8v7NeDriHd8C/AMvXzRnpj9CQH9qukchQ7yX2vvTlX7LKW1nuJOg5lXo/T2qG9QOudzworUq68RyPS0+GeWup+eVivhaQpBetH28q9s5P40YY8fvF4H3qv032u4Ni26L5c7rUrS+Y+aBkRGo6ok3nDibwEhal40qkdr2vOQRHphZVPxpl853EU+mDnknXlCKPeg5QO1wGrzmPTyUuQR2a9x2aYE5fXQ9T3LAV16TlxNEtP0LbHpi5/kOi86X2FQY30qWjgvsau3MKDG75AhW1o1CYKIyg9/dtRIEqhmLmiy0bqaTiygcn0lFKo1Qlx7jRS8ZvCWcdSohqslnl/C+rOa/GHoRpu4z0h1w3SCy9ffThvecOo82T0eSj6Xd0b7qW7At3qiSiFoQgOKxp9UHyK8PQa8xZAmEdnDyuMnh+SiH00/ih224pP4Ttn562t/6IkZNms2jwnrRa7dbRkXhOYnsZZTv/b67+j/7/HsaHbnDX/uVo1SaTW9HCg+pHKcIJ07BVi8ijXLbm+TKbsZfUzfhkzyY9y+Xd18xhF61rN04+GGPOWkgkSw5eQT1N8mRN1oUOapScILB/lf4ruW9/8KK+LeJC7ZraQLIx+WaYuFqyd9vDolOj9OQzri9A9L0YKzuY56jiVbfwi0jtVKh9QTF5Dxf6aKodzjHe85Do+O67imjpRiuiUFEc7pOauAesnqJJiXM5+hvnZS1oSBS9T72Uu5qRn4vdyF67SRpOvIKUD/Kp/NhK9DL/rpC7DKr4zWjaOrXfIFqnHph4nfvMKkvl3nqXh77GUv+RbGi5JDcOuXKN7Twx3Zrqkl1wri8DBOL0ghDUycozNlRPkrcuN1oXeUs/XBnmZuvtcenFf04upMMRwQWzdl18O2dNzEF/NfwkU/4V/emUU7hvLGcpkcTxzdruVN3IZa9SgS2L44AxLJt97vs17hivpD8hVhlWDE185Cp9RD6xliWPMVBzLRH0adeNLvCMrTIdzZbt6P0l1j7exSosgu6vD7yolEZlec1JTFDZ7AmtKD688iM2OG3A+Ocohh3M42/Sl6JmJ7fw8sjp/hpTc8DKh5f6duorudXWosqtPo/X7bPpl+pDbH/r35whPT1lKzkbOQaidx6Z88UnEQjH6cy4bJjWDtDjTc9RPiF5gCr/UfS1pgpzw6/dl6moytRfLzH4YTBc5QSZN1oVnUrR1+muZurOr+PpMpaV9YM8MrTiYnuLiWxjycysM/S58NO5WdSGtCw8Nn2aFFdWL30wN4OXtDMMYw0MShmGMYYXBMIwxLSkMNSET63vnFYbpV9qYwxD/ktIShivd9bBjGKb3aGNIohxSetGnhGGY7sJzGAzDGNO2wuiKvz7DMD1NWwpD/DP3T3C7zneeYZhPnbYUhtjU9DapjG4vLWYYprdoe0hyIX37GYbpCJ70ZBjGGFYYDMMY04bCEMuNk2Y7LjEM80nRksJQruFt/nPzDMNceHh5O8MwxvAcBsMwxrDCYBjGGFYYDMMYAvwf5GFmSHY4CFUAAAAASUVORK5CYII=;" vertex="1" parent="1">
          <mxGeometry x="1657" y="153" width="268" height="67" as="geometry" />
        </mxCell>
        <mxCell id="8hgxPUImvKMug2X6srkp-22" value="4. sobre escribe metodo en el service" style="text;html=1;align=center;verticalAlign=middle;whiteSpace=wrap;rounded=0;" vertex="1" parent="1">
          <mxGeometry x="1654" y="93" width="123" height="30" as="geometry" />
        </mxCell>
        <mxCell id="8hgxPUImvKMug2X6srkp-23" value="" style="shape=image;verticalLabelPosition=bottom;labelBackgroundColor=default;verticalAlign=top;aspect=fixed;imageAspect=0;image=data:image/png,iVBORw0KGgoAAAANSUhEUgAAAgEAAACcCAYAAADmgXjVAAAAAXNSR0IArs4c6QAAAARnQU1BAACxjwv8YQUAAAAJcEhZcwAADsMAAA7DAcdvqGQAACyuSURBVHhe7Z1fiBzXne9/kxdz917uUyx0JcV2lmlB2gNrjByTHmP75iHL9Cx4BMkEDEHkRu4Ba9npZTMP13eMFTzJy7DQY6LAtHwTxLKGHYur9sXTneTBsY1mgi1v4oV2+6JuiOW1ZCH5dYP8VPf3O+dU16nqqurqmp7unqnvRxxNV506/0+d8zt/6vymHObLL7+k++67jwAAAACQHb5i/gIAAAAgY0AIAAAAADIKhAAAAAAgo0AIAAAAADIKhAAAAAAgo0yMEHC7/hN67rnnlPlJ/ba5e4i4XaefcNpe/dBcD5HG0hQtNcwF88kG0cNTRG/z7xf47/f4OpQO25nnhLeXtDsxL1j+dTHPh9qlIDaenQ2and2QIAEAAOwTX3Ecx/wcHyIAvHjtMXr54kW6ePFleuzai1ZneZvqP9HCgWuSdaTaXc+zH77KfvyEunLGPnbOo6CzMUtFqtPmnLnBPHTS/GCmC+ZHCJ9s838Voqf1JT29SfQRV4d/iHGThl/OhgsOsfGcXqbVmTLlbOkGAADAUPnK//vTLfNzXHxIb145TudeKtJRdX2Uikun6eYH0itLR/4iXTl+joUDERC0OfuIejAVt2/dpBMniK79QUsBt/9wi44/foJu3trn2YejRXppj3HvgUfLZ8ozVLclABfuVB8yP3NWZ2tTLRPNzZuLJEwTvc5Cws9CgktNTDznNutUqq7RBqYDAABgX5i68ta/OnOFh8d2WJDMAmzSEr107E167sJ76t7j584RvXGL/uaZW/TiBaJzF89SaN8po/gXr9Bn5vLxc7qTVTMLV9y7Lifo9Msv0aN/kPCeocdu3aJHzz5Kf6jfpkfpDR2H4lH68NXnyERD4fopwsqrz31Ax07fpCvG7xOnX1Zu4u1k8sHz0/NPiHenZi3syDC2vSwDrOXbtLPMvfOg8AD74RqP/Hn0H0RG7p1Vf2cvSwXnqvr3M/WAICDLBDmilrnMV1hYWNbT/fMsaAT5hzbR/0gYZZnpyLVWyQkTdAAAAOyNV//Pu869e/fk4MCx8MeL553tz//oXDwrfz93ts+b6/Pbzh+3zztnL/5RPfe5/D57Vhl9S9xc5P9dXD/MpSN+uc96iD9y7/Pti842G/37vHPec+jx+bZzvhuG+M/hux4qOze8ODuXsPgE3P3xIqfPDs/yQ+w4Tzwv606JCk6lbS4H5H8X2ES4Fbv/WTcXAcLsfleKfl6I868v7YpToBKnFgAAwLD5yn/9L//JiAPj4DbdunmcjtEtunniMXr0KF9/xtdmIGxztPiS2i9w+oS5cZvd0Ht0obtX4AJf9ef2LT3iPvroMbp2hehUcIpB7RkwflqzDJrH6Zw7jD/6KD124jPyVhHi7OKw3R0jN3nJmKGTKSYBZBbgH/nPt9O4DeGhPNEbRaKHl8yNYTJ9klPZpOtYEgAAgKHzlfxf/jfzcxxwp88iwFHu0D87rv/ePMF/je3RY8eJbt7ip0IQNydOm82ErnmJ3Jn0vqg1er3MIOF8pnrsD+nVCzfp9MvGv5dPD9gpD5NH6NTjn9GVF41AIvFacvdN7I23a0TPrHpr8XvloWW9ofCjBfN1wX4IAwAAAIYOCwHHzM8JQDp2+fvhB/SeCAWPnKLHP7tCm2GfDBq7NyN39R8lLUMkGo5r1OyCx4dvBmcCLD58k6589njvTIIQZ5eU23V646Yt5IQJOClGyPz8hSZRaT+W2NnPj9pE+ar32aHwlzNE7evmYlA61zmVKWc8AAAAxDJmLYKy+/9NOvbSKfpApvNPPE6P03v03md6E5/u9GTznD3Vb9kFNgaSzAx0vzJgfPbijoeomy/SrWcCu/RlCeCDU3SRb9qb+E6cPk3Hr9yiU2rGICYesXbmC4eANKE3COqNgdp/RsX3Fj1jroObFNXSgbVJMs3GQNngdyGvN+4FkQ2B/7hrLgzuJsBB7PptHMTGQAAAmAzGrkpYOroPTgU65Ykk0GH7iLNLifoywP9lhOTVG8esrwfkQJ1ci1adTRmE98d0xucc72yAyaZBS1NrlG/vUJoPIAAAAMQz9hMDHznFY/836t66P3d+B/Xgnv3lQ/rgPaLj9q7J6WW6VGlSMemBOtyRynf+B0MAkJmOIlVLqxAAAABgnxj/scGPnKWXH7tGL7o78nn0u6e19MPCI39Dp0/4v364efrlnhmT6eUdqlPRd2zwoaCxpE5CxDIAAADsH2NfDgAAAADAeIAWQQAAACCjQAgAAAAAMsrBFQI6NfrF1CL9YiNMAdItend2kc6zvZjQZxqvRNuB0SFfOEz5VSFPJAclnoedw1QOKi1LcoBnX+Rz4ClOtxjUQRf5eihZ/qUlqKZdldkeVJx3y3GCCvGQzgQcoyd3tuh8+1k6Yu7sL1IZvZd0amr20Gm+sxshbZK+fB3amE3TcKV114fGkor/7FAK6JCXu8krzwTLfPhlJOdCDKdsbNLEM1i2VvpVvlhlPQLBZG7TIcdpU2UQNd9jKL/DRJia9j2pOOd6slYtUd3hspygDc/ZXQ6Y+zs672zR88vDOjGxQJW2vKgOtStE5TPppcVJpVTX6dMm4dkE/eCXaof92493Ql7ioMTdqDWpUucC2toerHwi43nIy71QobYp87Z8jjrkkVdYGcUysvoyR5sq3XUq8T/VcJs637nepAJ3xlvbuqQ72y2aKRWoOYkKLvah/OIEtbR2Ewd32FFq2lOrOG+3aLeQp5y5nBTGLwSYaf3LS3p6Xpmlaz677pS9mcK/bNfi1mX1jM9dLP2WCvz256dW6N0BC3t6fpEKuy1qm2upUDJScCVyX5sXsPNeEj3VtSENU48dE+nnYO6S+RlHdHiqUZ3KUXmXqFp0/fVGUFFTnHHulJ1vOk6PZnzpYMTv3NYitX0vcYNqzUWan5unRdoi04Yz8XkWFc8gh73cp5cv8Ui0Smvstl/ZJvEzvIyiiS2HiPT1jadh0LjQ4iottkSQ7NA2LdBK3twX4tJu2+XK5B20qcuv+6h6LmGHnSCvhWGVn3yWvNrKBd5DTVq7WAJx8dVdwZrx6F+vI2Y/xA8rXo31MlFlJWKgM0crIvCvJyqdiWdiZgKaVaLv88j8fP0JrpXr/o4+hjvs7r8P5C5uqUAEgDK9tfuEjosy6/TkgIfVSAXaLS2YCsQvtzrVT0vjMrKgotUR8rMz1gjbfwRwlcpyZK7Y6WGmdieVO7dFi2YEKnZNy0+fu3qJdsvr3cYkOrz4eApeY8HG9yKHhycvvTuF6c0ieKf/RU1xxrmbXl6l0q7VgXe2aWu3RKt2Ojh+cpyys7Ms5yN5NGrUXJzne9PE/XV3JKeJyGsm6VTsYS13j2k6OWN+xZVt33jGlFEMceUQlb5+dTBtXGZOztF8vkXbG+vU4t9dYtMueW3Fk+36VKkEjKP8dFm0F7coFyKopLWLot+7UqwtaDu7zkemQeeBnrWRstfxkNkdLlRT/jxYqBZocT66NiiBv1pLnIYu3TAmh4kRAo5UvkvfkB9z3yKpp3euJ9uwl9ZdKJ33qcmScdfPgdilck53kMVmxRtRKAU4XFGl41SmyFceuXxBd66h4nuJutNR0zx6LexSi4eZne0t7mysk/Rknaqk7TSWu1ze19BEhtcnnoLXWLDxNZjR4Q2fOVrgtHpTsVuexC4vPsebOJ7+hkLgEcBald9BfV9eYv+SQHhe9+fwl/ugxMYztozSE5+fEaSMS7ulx+/T83na4gHjgslyITbtLIRWCxVasZ7fM6MuPwslSIjMETKzktYujMTvilXn49Ig/ilkUFBoUs14W8jbE/V9lJYNpOJcC5pTIqy4cZ0gJm9PQOcm3TE/ByKtu6Fh1oZFut8t0xm3dqt1IG9dThtvJKIlcr63UNMv8SCNWAoiw+sTz0liTubiVAfeoPXyjDcLwC/6jm5dQjo7mTHgcYPYSbplKtaeUUhNlsq9Q3rAtIdKEVdGeyBVfu41Lsq93icwzcPL3WAvOQpGXX4WaklByVC94aW1C2PY74pbViw/0eLqIjVZChDBblj50oveX9LOrw21zg+LiRMCvtje4c78QZqZD27Yu0Xvrl01v3uJdjcA09+kGRYS75Qv08fm1sBww3CpUvCmpeYWqMSdQ9/lo7lN3ZFETTE11qm8W1KjDj0VZW1M4RHNWrVAPkG2H8HwksZzYOzpt0GIccd5vDrDHfgGj6y60+8u+oWTo5TtJQs9MqhbDaVslAouCRisvE5MBsq9sSRryHa+hJdR/3iGl9FQCM3PuDo43LjEpl1Gql3Bs0MbZ+w9AYI7sgyzi2As5Sd+mT0URgiySWvXl37vikXfcmjWaL2VN/uDalRrBt+jPqN8NQMzmIpzET44s4db34cBN4bOvXv35M94aF9xLtD3nJcs83rd2DGtknW/op9V9nHuQuw8+/ed1yPthKD9j513WMyOp+6UqODwiNAg1+QU3BvtisOyhSPZrUyh4mibtsP9hnefTakbD+2HZ2f7z9RLEXbirsT/G1TY7nVceExkPCU4674yrp9x4Rl8/rpx7Y2LmOj4hKff93yAdqXgyBqGG1bPs8oPiWtcXsfFU9wF8/4QlbsvLOu+TVQZRcbTj1dGGnXddaeNto4rhz7pE+LqksEfl2A5iJH81GH1+C/pdW/GpN1OX6nuLzPbrlCpWHZxaRfr0ZafxLNbxwOktYsmrmzj6jwTmQZdtm5cdL5b7hhp7+Liqtz0VII+SHzCymDMjF93gHwBkHuNqFIZ4ud6hwFZR6rRQhqJOQvIbt61PLUH2MwVzSTlNcodgLHTkY2FsuEy7D2UdzSFivOhtlnDY/L2BADQF34Ji1UqrU7WywQAOCSo5b1wNe2pVZyr5SDrE+IJAUIAOFDob8WL1Ky09+XAGAAAEGRDYo+adh7Np1Zx7goWI9gIPAhQJQwAAABkFMwEAAAAABkFQgAAAACQUSAEjBC9nj1Z60EAAACyS0aFAKMkKJHCoSGhDqsoUV0OqsGONgAAABMAZgJGhTrec/LUSAIAAMgumRMCPl4S9cCiKZAvqusBdcF6hkDUC3+xsWLsXqGPu+qF5beLuTdboy/MHQAAAOAgkTkh4Buboh64Qt8u8EWJO/owdcGty/Q2/b1RN3yVfrdB9OTqE2xxlT5yl/Mbl5UgMbO6QF81t/oygWokAQAAZBcsB4Rwp0r0sBxhPL1Az7OQoI4znvuuEhyaNb2P4OPaVaLCs/R03+V9OWJyamLVSAIAAMguEALCKH2LvmF+ehyj/OKDRNXf08d0jT5iQSHZLMBkq5EEAACQXbItBDRvDrSe/9XlRZqhq/QvU+vUTDQL4DGxaiQBAABklowKAcf0Gv/ua/Rz38bAfjxGD5f0ryOL30y+FwAAAACYQKA7YEDkq4Gfl79G33f+LmTJIIYJVSMJAAAgu2BPwEBco7fLN+hI5buDCQDChKqRBAAAkF0gBCREny+wTs3Siv5aYFAmVI0kAACA7ILlAAAAACCjYCYAAAAAyCgQAgAAAICMAiFgEuhs0OzUFB2KrQIqLUuUJCld1cqHJe3D5NPX6GdPPUW/2jHXQNO5wfXrncNbX/axLZD3zeevhDW7gbNLMg6EgBHQ2Zil2Y1hv2od2pgdtLEwRxj7jOmw5RPGqVnqRnMEgsncpkOO06aK6HFIiopnSPy7pMmXcfAp/eZsmk4+rTswOqLr4LjaAgm3SHXynVw+vUyrM2XKTf7LAvYRCAGTAL+MO47jf0GHhLz83tcI+ghjx6lTif/V1e9NvsvPXW9SgTvjrW3dQHW2WzRTKlDz+gSOEwoVaqu4O9RWX1wkm3mIY38a5z3wwLP0wjvv0A9nzTXQTD/I78pT+/KuTAT70RawQH+mPEP1EE/nNrktqK55wj/IHBACxkzslLgZjbv2bielOvapHJV3iapF194axRvE79zWIrWTtiiLq7TY2uZxRYe2aYFW8ua+EIiLL662Xa5MoqVZIzMPVgetnkvYYceFZzG9fIkqhSqtceL75kuMn9PLO7TaytHUoNOjZtr+nDHeCH2HfvXUT+k3r53t2v3stU+VzW117wf0f9tEH7zguj1Lv9HW9G8/DfMv3p2yO/sa3TbPujMGbpj7gpmanzJmduPPxoIJ2Nl53Vji6w3bvqXqRGfjGuf/DV/+y7Ouv/I7zD8X2971UxETl1h6Zp28dzCqLiV9N8PYr7agsV4mqqwoYb+XOVqpEJXXQzNU+Zc4v8DBRD4RvHfvnvwB+0S7UnAKFR67RtJ2KgVySjw0t6mXeu95hLvR1J0SF210mGJf4v89JI7iV7tScips9G8T73bFKVDB6Xrnu9ZhdeOh7Fy/A+H47FzC0hGMn1yb8OolhwoVduUh+eSlNSJfYtPgIWmmnjhGcdX55ZNrzofmSl//yPn1Dff3k87za1eVjXN1zXne9+wN59c/etL5pbHuJco+6r4dNnPjn52f+sKLQOUDcZr9pif/QqiX3o547g6X10dWHsr1+928FndU+KRbhp4//ud6/RH+g8u3N1zlZ+mOubKJj0s0Vp1Tl3a9i6mfiuh3czxtQW899xH6XjKS5oR1ARxcMBMwweTyBS3dDyKKqxFDkaju0M5y8gOK2y09fp+ez9MWDxwWrGFDZ3uLdkur1PVO1hJLu9SS4w8bNaoWKrQy1OnL69Skqj5YSZkiX+2N2DRYyIyAUycOO8Ho7dMb9Dn9lqpm1H7uqRfoA2Ol+Q6V/peZz//a1+m4/rVPzNKj32nTv141sw1X3yJa+gH9lbqKwUw/c1vgM0kmj3L5v+D6yaPrpbvmjqHzZy6/u5yH3qg8WH6l1Qe7x2fPbbrT+/fTQunPtLWtR/6djU+oWro/YgRrc5dq1b/gwe795toiQVwGZh/qZz9StQVdZuhkXFMwfZKfaFLPyt/cZuK6AA4uEAImGNUhSaO8UNONTZIGQDXqqhdL12Ao93qfgGg+3A32kqOg3aJda91fmx2vA/fRoetNbuZiW7nkqOlVJUNFhWfx73+im7klevGdd+hC17xKf/2AsR8xf/WDJaK3rtJt2qHG5tdp/tkEEQlMM7smWVV7jMvlKa6fd9mNJQy0/4PL7yEuP7brmsf65yczt/IQ0dZdLtU/E8tt4R37IKSOyxwLJLtUzpk8KTapcsno/Riofg6HVG0BAAmAEHAQEIm8XaFCtWatp0+T1k4cNlzVGwDrVBx8jTuE6flFDtvaPMQdx1q1QPkc/1Y6EbZI7yfs0MYZe0+A4I4wwuwimFug0m6ZwpYpgzSWZD20ZM1chOdLbBoM3T0URgjqy+zTdKq9SY1UO/UfoKNfJ/r8xqBr9jHuHniW5r/+Fv3ba2/TB995uv8sgLCHmYAuc3munw9x/t7V9XPufi6/TxKVXw/T99Mi3aHtxl3aoiM0n6hj/c+UL/yZyuuBGQkhSVzC1r6lfjTtjt7q5PvWz7h3c48M3BYIIaN8GzWzETJbYPJlojbMguHDFRx7AvYZvc4ctuaq1/KS2vWszfnWc8PX/VTYXYeyPuj3U69/R6wpypqge9OsD4aFZaevVPevl9p2hUrFsotLu1gH1qrd9VhfPKz7NlH50icN8Wu1Eai19yed513zo392PlcWgf0CYWv0Prfuer5e8+/6Z4xvD0CoO4PaexC312BY6LV5Is/46k/7Ey4Dyz50D0AE9Y96/QsJz/9M0N7aBxATF8Gto8E4yTq8V1/EWOvmUfXTJaIO2u+Da3S4+9cW+PfM9KLi1OMh4/oZZgcODdAdAMBhYuendO5XX6cXX32WjppbIAUyClbLQt6skMwUreXbA+21mQhkySfXotXQGS75gmeN8u2w5Qw5fyBHW4sHMM0gMVgOAODQsEO/euG3dOqHEACGT4Nq1eHtPRkp00aDacg+gsZSkar2hlmD++khBIDDD2YCADgEyNkC1d8SHV/6J3ohyYZA0Ac9Cpbv710KlYPdIcpMRm3B2u8hsx21BXKw/T/TQAgAAAAAMgqWAwAAAICMAiEAAAAAyCgQAgAAAICMAiEAAAAAyCgQAgAAAICMAiEAAAAAyCgQAgAAAICMAiEAAAAAyCgQAgAAAICMAiEAAAAAyCgQAgAAAICMAiEAAAAAyCgQAgAAAICMAiEAAAAAyCgQAgAAAICMAiEAAAAAyCgQAgAAAICMAiEAgP2ks0GzU1O01DDXY6NDG7OztNExlxE0liYhrimZmLzOOIepHFRalihJUuTdmeJ0izlIaYcQMNHcondnF+n80jVzPS4atGQqtzb9O5ODhv0Ca5Psxdeda5qXPq27tLSptTtDJ6fNZQidjVkqUp0258yNcdFYUmUwO5RKdsjrrskrzwTr7fDrmdST4ZSNTZp4BsvWSr/KF6usRyCYzG065DhtqhTMjSSMofyCQAgACSlQpS2V3KF2hah8ZoOr5+GiVNfp02aThtIXTi/TDvs39o61c52ahTzlzGUP3EieKc9QfewR5Xax1qRKnSvZ1vZgdSwyrw953S1UqG3qbbvSpGJiATYZ0ulPDdIL7WOd98dljjZVuutU4n919Vu/t53rTSpwZ7y1rUu6s92imVKBmtcnsOT3ofziBLWgHYSAfUeP5n+xcYu+2Fih81M8sp96hT42ttSp0S/UPW3kOeHjJbku01u7fFFdN/Yr9K6UnXHjPkuNV5T9ZVVzYsIz7i4v6eeVSTHLMD2/SIXdFo8tDUbKdqVZX3sRsPMqn0jxS7QhL3WPHRPp52DukvkZR3R4qkGaylGZy6hadP31Rh9R04Nx7pTdrN1J6ZGALx0x+GY0LH8621u0O3OS2l17f0PTWC8TVVb8gk+/+hJad6/R5e5vD1UXZ2v0hbmOpkG15iLNz83TIm2RacOZ+HJPOhV72Ovu9PIlHolWaY3d9qufSfyUfM1tLVI7YY8eWw4R6esbT8OgcaHFVVpsiSDZoW1aoJW8uS/Epd22y5VJmmCNLr/uo+q5hB12grwWhlV+08s7tNrKBdoSTdAOQsCoaF2mt+nv6Xz7WTpCV+l3boOZe40b3wqdd7bofP0JulMuq878G5t87VTo2zK1VOIGVOyddXoyZjrXR2h4mmaV6Pvs399WHuTataUFiwGQDmO3tGA6DH4xci1aNZKsSOVUtDpCfnbGGmHvLNsJqFK5tart9BBNu5PKnduiRTN6E7um5afPXb1Eu+X17osYHV58PAXvRWPje3nCw5OXyZ3+82YRdsgNMmp6MM7d9PIqlXatzq+zTVu7JVr15VsYWliQ6XztH/tPZTpjEthuqZaEags6vHpJNzQa7nirBVqcDw8jvL5E1d3jdCSQ3i4zx+mr5mckjRo1F+dpmv9xf90dyWki6guTdCr2sNZdj2k6OWN+xdXPvvGUDm+K1vJtcnaW2ddkxJVDVPr6vUdp4zJzco7m8y3a3linFv/uEpt2yWsrnmzXp0olYBzlp8uivbhFuRBBxbaDEDAi7nBD+vDyMS7ZBXqeG83n5Xfj99QUO2481WiqeFU/e90/ikpDaHiGI5Xv0jf471dPfo3/v0F3usOiOHapnNMdZLFZ8aRxmWbmhq3odp5TRb7yyOULunMNFX1L1J1+nuaRX2GXWhwXNWotrXqNwPQyrZa0ncZyl8v7XtLI8PrEU/BeNDa+xiY6vOEzRwucVm8ac6t3hB5GY527fKtcrMaEfaHrXNEKlbaaopURRrGn04/eLxBaXyLrLtH9HO6d1k0OyMwkcFHcbd1Q9vGwILNW5cZbR0RG7f4lgfD60p/DX3cHJTae0sFwGMTvg1/w2Rvx+RlByrgooZeZns/TVplowWS5EJt2FkKrhQqtWM/vmVGXn4USJETmCJlZce0gBIyK0rdUQxrGTF1G+Z6xO+zUxISXDrOuKpLxrjfC5LeNdq01LZ+0ymhplu8t1PQLMEgDkILI8PrEc5KYW3HXwxu0Xp5JMAsg7Qx3yTMnLcFFd/y6Q5VNgQWaaZ1ReXKGLg0t7WF19/78g0TNm/Tx9g4dKT3BgsE1ustxOZI/blxFoGY9ZMLCNJYyFWvPiqQmS3XXLveUcIeyo3uOoaY5VX7uNS7Kvd4nMM1S8W6wlxwFoy4/C7WkoGSo3vBcOwgB4yT3AB3hP81an3V5blCj11Jv0btrehQ2EvilulQpUHcac26BStywrvd7P+c2dSNcrfVMTSlkJLtbUhK7WretrnmSK48G1njkmo/c1RZCMLyk8RwYPeIefMNRjDuR6me489vgUUl36trC7CjuaROb17uj5sZSTs0MqBGNjEQKi7SyuUNtKbvQDXdNGigJMXVXzxh8Sh9tfY0eXnmABZrf0x2+c+RkvHCrRzfucoY2XISBJQGDVV8Sk4G6q8rdly/h9ax/PPWmuzoVQ9eV90Rofsa9R8ONS2zaZXamK3h2aOOMvSdAcN+TMLsIxlJ+4pfZQ2GEIBvbTl405969e/IH7As3nXcK33NeKr1vrgO0rzgXiO275sfOOywydqlvhNq1Sp6b1yvaj9frYhMTngnrQuWmvjZ+a3dx1J0SFRweTRnkmpyCe6NdcQp8zXVLm0LF0TZth9tc7z6bUjcs7YdnZ/vP1EsRduKuxP8bVNjudVx4TGQ8JTjrvjKun3HhGXz+unHtjYuY6PiEp9/3vIE78hC7QHi2pfjVvTbPWWkXJP3d8nTpV1+i6q57X9VBUx+D9boHHa+e9Kp8kPyOqy9xeS3ugvXnENVdX1jWfZuoehYZTz+qvlmRceufbbR1XDn0SZ8Q9z4Y/HEJloMYyU8dVo//9nsQk3Y7faW6v8xsu0KlYtnFpV2sR1t+Es+e99kQtJuS/7788ku677772C8ARoVs9qnRQoiUChgZ7a/lqT3ARqg9wSOJWbV5aVLLY5LqC+ouODxgOQCAiYM7mWKVSqsjEgAENVXepOIQ14ABAJMPhAAAJgj9nXWRmmYn/yiRjVuy7go5AIDsgOUAAAAAIKNgJgAAAADIKBACAAAAgIySSSFAn8k83IMwhk5QP0BKZI35wK7xyo71sO/hR43EYw/fJ+t1/gmvbwCATJJJIUCfXFWnkn3Ywr4yHpXA6njYgGrYbofUNXvXWJUefd79xPeN6vCeMuXSRFQd4lHSGs5GvdMPAAD6kOHlAH1G+zhOkRwJ3PlEqYYt2WfkT/K3ztz5ToQaXmZuM6XQqI4MjVHhCwAAYwR7AgbCjOhFYYoyRrVvz31vGj9WJbAiyk/NEXrfU9c6wEyCaOxKpHjGpecoWjkQxa/O1D+LEFSp6dn5/RiuGl5FivD68ulr9LOnnqJzxvxqx9zvMkdypH95+OcOAwDA+JBPBLN6bHDoUamRuMefbjgtcyeKu5UfB45JjTrKN8bP7pGs2q7XzzjkqMvwYzd7jse1j6lUx1DqYzCDeaPc9ZzDKQSOQvWFbY71dN2p4y/teEUc79klxD7oh+86EJ6VnniuOr98cs350Fzp6x85v75hLl1UWEn8s5A4RCcQAADGSqZnAkSn8iUSzWpRup0tOu9Tk0etrlrVIF9srHRH8z8vJ1GbyvTxU0in9leIVg3LfZK3HGAfSzu3SW05NY5H0LKXwNZnLvrmK2H6NfuqyUyr/jWcvahqjeTTG/Q5/Zaq3ZmAF+gDY+Vj+iTnalJFO3omZaq2gL0AAICJJdNCgEw5D0WtauMV1fEfqVSUOtW/rTxoLA4mhUKirlNzgFT0RvLvf6KbuSV68Z136ELXvEp//YCxT4XWfNbOr+GrAADAxJL5PQGJ9TZPf5NmuG+8U75MH5tbQbSq1FvU2oqYCQiqBE7gZ3oGVA0rNJaUeslLO5eo0ixa6+k5yvMIPnQ9fBAVvT3qXwdXwzsUVa1BZp+mU+1NavTsAwigZj2iZ1jCEB3mtopfAACYJLAxMDHH6MmdFe4CrtK/uBv13E18c9+lb3Nn3izKvTLdWXxW6Vr3YLerTxDtvkY/t93F+bkn9JcPoXrYGW8jnhizwU82BhabVLkkywPTtHxJdsHljCDA1zttJRj0uJMRb7vCabf89H1Tby0ViP/c2dqT43Nqt13OuHWXZfSng8GNg2pALV8M1GfYifEzt0WL7b3OPMzSD/9piT5/wdsYeO7sa3Tb2LropYgQ/f4AAHBAybTuAFkOqC1MxidoQ0d20I9dNaysix8WlauSljXKDypwjFolMAAADECGZwL0Zrc9TSNPMlANO1QaS0Wq2hsSkyKbE3dbdFiPowAAHGwyKQTob9RTNuoHCKiGHRI8mpevJVLt8neFMVm6QEEAACYMqBIGAAAAMgo2BgIAAAAZBUIAAAAAkFEgBACwnxg9B6PcDqD3vIxTO+QeUXl2gOM/ocjXUL56KPk8sIpsrZ9jz2WTsox70nCQGENbkAQIARPNeFQQ92KOwO2aBMcsHzBshUXaJG2g0qpDnjQ1yhMUnzjNi0bRVddMZI/gnnNhmYE72+ESplZcHbmdVkX2GAhNwzgwdTCxcrJYxt+2QggACSlQpa2PBW7L+T5nxtuo7Qc+nQrDOttADjdi/0bZcMlXIYPHv00t32mO46NzvSlHefaeq6AOtCKqd8uIzUQe8iF56b0vyozznAgegUapFU+tInvUxKRh1DRqTarUuRHc2h6sDYxsC8bbtkII2Hf0aF5UC3tKhl7xjgnu1DxVwWwSqSA2btxnRXeB2F9WAn1MeMbd5SX9vDIpZhnU0b32t+9mmsuVZn0Di4CdJz3racVItb+Rfg7mLpmfcUSHl1Ydcpw7ZecbNepRpS8dEWh//XFw0dOo9gjVfcYdiYjiJ+t0RyvC/lkSa4ZEOmV+zrZ34xkdnsbvJxsrvHZrl0oh0ogSDmJObBw8nr2zH+qZPaY99njpOHdxdowvLnYd6ecuVq14ShXZEmZIWLHvmG2XK5M0bfp2/zofmoZ+7Vlo23qNLnd/e6i2crbmP9Y9lAbVmos0PzdPi7RF3qGs8e2SXTa+PAkwjrZVpI/MqhIeDVpd8IXShvN65abjqgi+IL+d953Xu7+Z+obzEl+/3tU8G6GC2OcH43MXE15q9cR+1cR+tcJxqoT1s+GadGPUDO9BXXB8ePHx5NfDM10Vy/HhceQGV4esiLrvj1dy9cV1p6IzL8RffU/S5SXD/0y7UghVeRx8zr5WbthPV+W050dceMbO8tQfRiD9PkxZhNini6d+zlOZ7c+7tH66dp7xyi+Ju8j87EZGX/uei/CTYx2Tn4aBVGQH3ocB31svCXaYgTj2xCciDbHtWVTbatpH975Bue1R9R4Cv/92Pru/3fSF5ksXf/3S+NMmdcxfdtH5EKyfHjFxCcaLrzETMCLuVIkeXj7Got4CPe9s0fPyu/F7HjGIAqGyllaLV/Wz1/1SahpCwzOkU0+82z2vv9isUNud0+qjSjiXL+jRbqj4G65meC/qgiPD66vymH2NUrGcRj1xavx6HyQvokdxNnO0rDJMT0WHnYTJDZaZiuzQ9ab/GRl9F4KOeMSwxpnkzVZoFdNuVogbzrSuymm1DOFaMqHhdbZpa9fKTxlZ2Sd3xipp0poZHVd3hDt63EM8pb7sdiuWtSSyBz9VXnLau3XJWprp5y7UThRvkfXOcc0UvVQucX5q+ii9GkhFtpDivW3UqFqoUJg28mR1PjoNoe1ZZNtKdD/n3Z3WTQ7IzCRwU3G3lUT9e4c2uFK4Sudk1O5fEgjPl/6Mt22FEDAqSt9SFTWMmfqWUkHsGrvDTk1MeOkw61btChV2y3TGnV7qo0pYNUhyb6GmK3LcXNgQiAzvAKk8VkqVVOPSoPXyDK0OEsmwTtR0vJ4/0tnZz+hOenE+EI7kGXcuXn6x6XYu2k0lrFWPCU83QtaUvnQOdnzjNgW6zG1yXOpU2jXTsWnjySgtj4bOxho13c4ntZ9iF6WdtJ+7cLvePRJ2GHF+Hhz2VOdjCGtb788/qDS6fry9Q0dKT7BgcI3ucn4eyR83riJQ9doSDGVJw62De4LLb4xtK4SAcZJ7QGkbbNb6rMsHVRD7uEXvrmkpdySw5HipwqOn8jq/rkxSVcLScEslr9a0uyCWmuGhqAsOhjeIyuOBGFwdsibGnYygZrhx2eAOMmwN3KzHhr7zVifa2djQaQ92rGpUZne00kmbn0GiyqtHkLDoF56rWlnSUeSxjWXn7/AatBSxq146bJ/wkCaegtQLiQ/XsTOiRtvufFL5KXZRGyz7uYuJp6WOurGUUzMDut/v407RZ5QfNfsSV89ckr63SoeG22HyiPqMtydA0a/O90tDkJi2Vc8YfEofbX2NHl55gIWP39MdvqNVwUejBVi/YCgb+UK1tfaoTU/AmNpWSQj2BOwrEev6Lt11LdcE1ujNWlbQrlXy3Lxe0X7YewJCw4vdSxCHfy1KX3trkFwBnYKsQbmmu55u1jItO28Ny6xbdY3tP6PW3sPsxJ21TqbCdq/jwmMi4ynBWfeVsdcro8Iz+Px149obFzHR8QlPv+95g7sGHGZn++mWj3+NuPda8KXfsgvmS7fMJX5W/tnEh2eVu7gXf+y4+PIkulyDYaeJp8b4HfJMKj9NuaVyFxnPQPrt/OqbPnnEikMIYfVBUPc5PL9V2vfW809MqR54rwTjNiQq4Wno155Fta3ufdVGmvay794oXQY9cVNxlnTE5UtcWyDu7Ge1P920+t4HNt2y7vXTi9tgZQTdAWBMyA7Ww6JmeB+QURhUEINhwKO9aLXi8h6mUJG9H8TV+dg0TAKT1J4NFhcsBwAwcfBLXKxSaRUCABgCapo5XK14ahXZQ6dPnY9JA9gbEAIAmCD098RFanZ31gOwd2QTWY9acR55yxcP/i8JRk/SOh+aBrBnsBwAAAAAZBTMBAAAAAAZBUIAAAAAkFEyKQR0z1jH4hIAAIAMk+E9ARP0aQwAAAAwBjK8HKDPq052tjMAAABw+MCeAAAAACCjZF4IGPzMdwAAAOBwkGkhYG7ToUt0hqamZj2FCgAAAEBGyLQQICdVnWExYFJVygIAAAD7SeaXA8L1fgMAAACHH2wMBAAAADIKhAAAAAAgo2RYCGhQrVqgfM5cAgAAABkjk0KAPjZ4UvRoAwAAAOMBqoQBAACAjII9AQAAAEBGgRAAAAAAZJSJEAKg2hcAAAAYPRO0JwCqfQEAAIBRMkHLAVDtCwAAAIwS7AkAAAAAMsrECQFQ7QsAAACMhokSAqDaFwAAABgdEyUEQLUvAAAAMDombjkAqn0BAACA0YCNgQAAAEBGgRAAAAAAZJQJEgKg2hcAAAAYJRMhBEC1LwAAADB6oEoYAAAAyCjYEwAAAABkFAgBAAAAQCYh+v+v1QJRZw6oEAAAAABJRU5ErkJggg==;" vertex="1" parent="1">
          <mxGeometry x="2058" y="153" width="513" height="156" as="geometry" />
        </mxCell>
        <mxCell id="8hgxPUImvKMug2X6srkp-24" value="5. manda a llamar el metodo en el controllador&amp;nbsp;" style="text;html=1;align=center;verticalAlign=middle;whiteSpace=wrap;rounded=0;" vertex="1" parent="1">
          <mxGeometry x="2048" y="93" width="140" height="40" as="geometry" />
        </mxCell>
        <mxCell id="8hgxPUImvKMug2X6srkp-25" value="" style="curved=1;endArrow=classic;html=1;rounded=0;exitX=0.57;exitY=0.872;exitDx=0;exitDy=0;exitPerimeter=0;" edge="1" parent="1" source="8hgxPUImvKMug2X6srkp-15">
          <mxGeometry width="50" height="50" relative="1" as="geometry">
            <mxPoint x="990" y="370" as="sourcePoint" />
            <mxPoint x="1690" y="200" as="targetPoint" />
            <Array as="points">
              <mxPoint x="1140" y="350" />
              <mxPoint x="1400" y="310" />
            </Array>
          </mxGeometry>
        </mxCell>
        <mxCell id="8hgxPUImvKMug2X6srkp-26" value="" style="curved=1;endArrow=classic;html=1;rounded=0;exitX=0.515;exitY=0.515;exitDx=0;exitDy=0;exitPerimeter=0;entryX=-0.016;entryY=0.398;entryDx=0;entryDy=0;entryPerimeter=0;" edge="1" parent="1" source="8hgxPUImvKMug2X6srkp-19" target="8hgxPUImvKMug2X6srkp-21">
          <mxGeometry width="50" height="50" relative="1" as="geometry">
            <mxPoint x="1530" y="260" as="sourcePoint" />
            <mxPoint x="1580" y="210" as="targetPoint" />
            <Array as="points">
              <mxPoint x="1510" y="170" />
              <mxPoint x="1530" y="210" />
            </Array>
          </mxGeometry>
        </mxCell>
        <mxCell id="8hgxPUImvKMug2X6srkp-27" value="" style="curved=1;endArrow=classic;html=1;rounded=0;exitX=0.907;exitY=0.403;exitDx=0;exitDy=0;exitPerimeter=0;entryX=0.16;entryY=0.365;entryDx=0;entryDy=0;entryPerimeter=0;" edge="1" parent="1" source="8hgxPUImvKMug2X6srkp-21" target="8hgxPUImvKMug2X6srkp-23">
          <mxGeometry width="50" height="50" relative="1" as="geometry">
            <mxPoint x="1930" y="290" as="sourcePoint" />
            <mxPoint x="1980" y="240" as="targetPoint" />
            <Array as="points">
              <mxPoint x="1980" y="180" />
              <mxPoint x="2000" y="230" />
            </Array>
          </mxGeometry>
        </mxCell>
        <mxCell id="8hgxPUImvKMug2X6srkp-28" value="" style="endArrow=classic;html=1;rounded=0;entryX=0.717;entryY=0.273;entryDx=0;entryDy=0;entryPerimeter=0;exitX=0.207;exitY=0.201;exitDx=0;exitDy=0;exitPerimeter=0;" edge="1" parent="1" source="8hgxPUImvKMug2X6srkp-15" target="8hgxPUImvKMug2X6srkp-11">
          <mxGeometry width="50" height="50" relative="1" as="geometry">
            <mxPoint x="460" y="350" as="sourcePoint" />
            <mxPoint x="510" y="300" as="targetPoint" />
          </mxGeometry>
        </mxCell>
        <mxCell id="8hgxPUImvKMug2X6srkp-29" value="" style="endArrow=classic;html=1;rounded=0;entryX=0.717;entryY=0.273;entryDx=0;entryDy=0;entryPerimeter=0;exitX=0.233;exitY=0.268;exitDx=0;exitDy=0;exitPerimeter=0;" edge="1" parent="1" source="8hgxPUImvKMug2X6srkp-15">
          <mxGeometry width="50" height="50" relative="1" as="geometry">
            <mxPoint x="650" y="210" as="sourcePoint" />
            <mxPoint x="430" y="210" as="targetPoint" />
          </mxGeometry>
        </mxCell>
        <mxCell id="8hgxPUImvKMug2X6srkp-30" value="" style="endArrow=classic;html=1;rounded=0;entryX=0.717;entryY=0.273;entryDx=0;entryDy=0;entryPerimeter=0;exitX=0.207;exitY=0.403;exitDx=0;exitDy=0;exitPerimeter=0;" edge="1" parent="1" source="8hgxPUImvKMug2X6srkp-15">
          <mxGeometry width="50" height="50" relative="1" as="geometry">
            <mxPoint x="690" y="230.52" as="sourcePoint" />
            <mxPoint x="470" y="230.52" as="targetPoint" />
          </mxGeometry>
        </mxCell>
        <mxCell id="8hgxPUImvKMug2X6srkp-31" value="" style="endArrow=classic;html=1;rounded=0;entryX=0.752;entryY=0.392;entryDx=0;entryDy=0;entryPerimeter=0;exitX=0.207;exitY=0.204;exitDx=0;exitDy=0;exitPerimeter=0;" edge="1" parent="1" source="8hgxPUImvKMug2X6srkp-16" target="8hgxPUImvKMug2X6srkp-18">
          <mxGeometry width="50" height="50" relative="1" as="geometry">
            <mxPoint x="660" y="230" as="sourcePoint" />
            <mxPoint x="480" y="240.52" as="targetPoint" />
          </mxGeometry>
        </mxCell>
        <mxCell id="8hgxPUImvKMug2X6srkp-32" value="" style="endArrow=classic;html=1;rounded=0;entryX=0.929;entryY=0.588;entryDx=0;entryDy=0;entryPerimeter=0;exitX=0.233;exitY=0.408;exitDx=0;exitDy=0;exitPerimeter=0;" edge="1" parent="1" source="8hgxPUImvKMug2X6srkp-16" target="8hgxPUImvKMug2X6srkp-18">
          <mxGeometry width="50" height="50" relative="1" as="geometry">
            <mxPoint x="660" y="440" as="sourcePoint" />
            <mxPoint x="430" y="450" as="targetPoint" />
          </mxGeometry>
        </mxCell>
        <mxCell id="8hgxPUImvKMug2X6srkp-33" value="" style="endArrow=classic;html=1;rounded=0;entryX=0.708;entryY=0.686;entryDx=0;entryDy=0;entryPerimeter=0;exitX=0.233;exitY=0.272;exitDx=0;exitDy=0;exitPerimeter=0;" edge="1" parent="1" source="8hgxPUImvKMug2X6srkp-16" target="8hgxPUImvKMug2X6srkp-18">
          <mxGeometry width="50" height="50" relative="1" as="geometry">
            <mxPoint x="670" y="450" as="sourcePoint" />
            <mxPoint x="440" y="460" as="targetPoint" />
          </mxGeometry>
        </mxCell>
        <mxCell id="8hgxPUImvKMug2X6srkp-34" value="" style="shape=image;verticalLabelPosition=bottom;labelBackgroundColor=default;verticalAlign=top;aspect=fixed;imageAspect=0;image=data:image/png,iVBORw0KGgoAAAANSUhEUgAAAmwAAADnCAYAAACjfQoXAAAAAXNSR0IArs4c6QAAAARnQU1BAACxjwv8YQUAAAAJcEhZcwAADsMAAA7DAcdvqGQAAE5CSURBVHhe7b19bBTX3fZ/NZVCSqq0NAYnsVNjqEGhAgeSICfucguDA1F8G5G2UZC8MloiQCLEtMAjPWAnpjb8E9zivEiAwgrLlqjyAsKPowAORmXrxIIUMChExDc2buwmBif8ErXcAanp75yZM7Nn1uv1rHdtz5rrIx3YPWfOzHrOzJxrvi8zP7jx3a3/gBBCCCGEeJY71P+EEEIIIcSjULARQgghhHgcCjZCCCGEEI9DwUYIIYQQ4nESF2zXzsL/XBN+YpRWnFLVI4613X0dqoIQQgghZHySmGC70IqfrL+B9X8uwjeybAUKK86iT7Y5hNwwBJ1ct7WueEmkLyGEEEKIx0hAsPXj7bdu4M3X8jFf1WD2TLwp6k9eU98xCc2WmDOKtmyiTJ6LernOVTmqghBCCCFkfDL857BJK9apKQMEU9+RZmyCEFOPfA6/YX2LJtKE2Ks4C7w4Fd3rL6HKqJPiTiwrLXPre9Fo1OmodvHp1L4mFDabtcUr81C/NM38MkTfLPHbZrSm4bOquUhXLfL3RtYRQgghhHiJYVvYTp26jor5Uqx1YKfl8pQiLGOiucCQ3MTz668g6zVpecvDmznX8dqR/rDlbOskICcDn0Wxzs1fZdY1F6oKiyH6pj+ShuIO3QIoPrfeRHH+gxRrhBBCCPEswxRs/ei+MgFZ90lr1yW0r8wzRdLUH0cIn+so1GPYIuLKKrYW4reT5ac0LMifgMbe60b9iCEE3frCm2j8mxCGkmufo7FjEtZbFjpCCCGEEA+SQAzbRGRN7sDJZlPw9PXeQHGGEG0OImLYPOB2nD9/EhpbPzeEY58UbitnJi+ujhBCCCFkBBimYLuObvk0jWv/RLtZge7em8jNMIWb/N+zzJ6CCsMtKt2hQPEjtK4RQgghxNsMU7BNQpYj10Ba2uT/pgiSrtKEuW9iRLxZHMTsmwP/SuD5V8+icepU5ZIlhBBCCPEuCbhEb6AbD6I4R8apXUHWykmo2t6G5x0iKCKGLZ7nsE2ei51SWK2P7BtOcpCZoo3724zPfpmwYDFoXxMz+eAmco2kCUIIIYQQbzPsx3rIR2u8lqE9UiOVMB7/MdgjRwghhBBCvMWwLWzzizOA/Wfxtu127MDOlHhNVD/efrWXyQaEEEIISRmG/+BciXx47vbwozgqthZh02z1xXPIh/W24XmpKQtn8g0JhBBCCEkZEhNshBBCCCFkxEkg6YAQQgghhIwGFGyEEEIIIR6Hgo0QQgghxONQsBFCCCGEeBwKNkIIIYQQj0PBRgghhBDicRIXbPKtAepVUXG9eioGfUea8ZMYD+GVb1kwtxfxSqo46T+0Dg/VWK+vH59cbdqBtLwgTovPp18vQ9rvjuGq2ZRU5LpXNvWpb7Exf5P4LbK8Huf+bw+Kfjvwrvgj9L/NQo7pi4eGf0wQQgghXiQxwSYfnGu84qkI38iyFSisOIs+4yG1YVGll0QElsX8Veb2mgtVxXA4UwNf+TQc2JirKshoMaVoC/rbanGxPF3VJI+05asxq7wAu8+oCkIIIWQckIBgE6LsrRt48zXtfZyzZ+JNUX/yWhp+W2WJuEmiYRKalajzxrtH27HbX4ey+o14WNWMV6Y8eB/weCayxOesqUIgTU/HFLMpNbk/E0W4Dz8Xf4T+t4XJxdqWSlz01+CcqiGEEEJSneELtguX8PzUqfjtZPXdIA0L8oHGv7mxokVY4QzLnBPd9bnzgqp0geFStdYbxU3bf2gvagP1WDtPVSgsd9q5mjl46JdmcVpqhNBT9Uax3amyvgZN0sUq6l881I6mtXKZdQh7CZ19R81tlxtA/5+eNESaYdl6QVkUpWvx9WN493fSNbkD77Yfw0rpotRcpg7XpSh/dHgv+1RfszzVoKolct0O12s7/qjcmK4w3J7WuiP6TXkS+9sCeEx+1v42B+nPIBCoQ5CuUUIIIeOEYQu2U6euo2K+fB9nB3Za4kiILmRMNBcYgr4jl4AXlRXuz3l4E73YpLtLmy/htYw820pXtd1lfNyFVszYP9G26H228oZy01r0o+1oCGULo7tCm8sLEJzWgk8/OY9QtQ+1ew+KHibnaj5AnqiXbZ9+Uo+yoF8TdHXY3Lkan9aXinX40bP6PA4EQjj2oezdLwScHxerzfXKvp5w2zW8h+6VtXi/pA9r1vRgnRBCWz76GCEpkIRomlV9H95vqzXcl/17crFjTVg8nX59B9ZMF4JJtb9fYtYnzFUhHNd8iT2N1nbvw5piZ5yaGx5eKMbh6El77AghhJBUZpiCrR/dVyYg6z5pBbuE9pVCWEnX59Qfw21UUvrSfM06Jy1zE9DYG36RvHxBu+0+nT0FFbiOky6sbIaQ3Bp206YvnYqKDummVRVCGPaEfMjMUF8jCdTj1eXmdtOeWITCUBd6jG9CBGzUXai5yAsAF7stSeDDKyVKBPoq8Rvdetd3EsdQiZfUemXf30gxeMJFwH3fQbyoWebskoxkicefhvWTi8qfNq1WBn14d3+7sy43YAi7/3dKSF8hqt5oyMX7lrUuiVw99TFQvgq/tsxmuU9jz+PtCMX752ZkO8aOEEIISWUSiGGbiKzJHTjZPAnrhbDq672B4gwZr+YSR3ZpE2bsv6kaojEJWdKYNyRSSAJV28Pr/clzl1ClWg36LuOi+hg3Z2ocomlFUNUPRW8XmkOV8Gl9feUh1TgE6c/gVduqp5VRSJaY82DykwKGovtKH5qqdVfsDqz5SDXGQ/p0zEInetwlrhJCCCGeZpiC7Tq65VM3rv0TluGju/cmcjNM4Sb/j00Hdq7vBaRlznZdTlBt0ZDbMy16bqjYarlarVIYtuYZE/kwkJYuI1EhLJoOBFSbG3yVCOmCSxY3omskLWxDcP5zXe304e+X1ccRpqjczCLVy+/j1aeGMJ+GzNHXnIQQQkjSGaZgi7R4SUub/L8fJ1vhWljZwu7aWWyKYWHrO3IFVTlpWOBIcIiG6VqNHe+WgUxfCD1CL8aP5ko9U+PewjZvMcpClfjDcILgx8TClg7fonQ0Vb8Xjh1rfw9rPsrFuiKhgKakY46Q6pabUiYnOJIOJB/1oNv4IJMTgthhfB6ax3y5Yrv73CcoDIa0avqykam+EkIIIalMAi7RG2JCfhDFOddR+NwVZK2UiQFtUTJHo5ED/0oprJTbcv0NFEda2Jov2W7NGa1p+KxqroqPCyc5FAqR2Li/zfhsPd8tfWmhmWigljGKI+kgDXlLnMkErjAyD0PYXKAsXHuz8YprC1su1qpEA91K5uVnhcmM0ovlX+IpyzVpJAKo7Ezx9/zeSEIw22Zdedr5TDUj3q1d9d2B7pUBbFFNpoBT/arFqDSojFDrAboy89NINDCXMUv8SQfnTtShcMkCMdqEEEJI6vODG9/d+o/6HBfykRsyi9Mbz1WLF/mIDT9Qf37Aoz3IOEC6kQu6EPhk/D9njxBCyO3BsC1s84szgP1n8badfdmBnTFeJ+UtcrG2vhS1fLjqOESI8YJKzLoNHopMCCHk9mHYFjYD+Wqq7eFHcchg/02z1ZcUQD4o1yefncbXU40b5Jj+AdvsR7MQQggh44HEBBshhBBCCBlxEkg6IIQQQgghowEFGyGEEEKIx6FgI4QQQgjxOBRshBBCCCEeh4KNEEIIIcTjULARQgghhHicMRJsX6FnzaPoHuzVTH2H0THrUVwyyi7Yz+bVsZbZeV5VjDzXdlq/6VF0HPpK1Y4f2nc9hnWH3f1d/Yc3YM7cx8yy64KqJQbGsTnIcUuGRuy/dWN0XJ2rUa+Oq1GvSiOEEI/gTQtb+jLkXPwYM09UeOoHTt4kfpP4XT9z/Q7RkeYrHHxBTGwvHA6/F/VsrSGias6q7yNE2rJdOH/2NFoq81VNaiBFd8qJbTWmkQJGCmxbNBulFqMiM6zfoxf9GBwK2T+e5TXiuamImzM1WBEsxYFPzvNh2oQQz5G6LlFL1G2aoypuR/6BrtZ8+HAFvaqm/S9d8KWWhiJD0P6XBpQGgyitaxkoyEqDhnCWpb60Af7Rskrll6NFbdcory9L3ov2xbn9hlznhtF9bUp/dycQWMxXmhFCPEkCgk26NcvQ03ce3dHcl2d24dKaw/hWfQXkcnJ59dVgkL5DMLRrUl+vKI7fMRTD7/vtobJwv5h/68D1OvvGcBcPIBuLCrvwgWFRu4APsAqrfwF0/l3tF8u9ZBXHhK4sdKrNX6eqJQOsIBdQM3cDDjr+phg4rDBx9BsS051u7yvNJW4eF9pxpNzm8hix9u/XQeD7rUui9jeOWaveMX5DHOsSve/CKnyvqk0SOR7FmNblI/uB2VgsBJk5ztHJ/a8S4H86I8YsPL6RFjqHW1sUp1XW2de9VUv2q0W7ftxZx5FVF2gAWqtRYLVrlkHdaqhv0/qt8hgNVS61lzH/JvM4dv7GaHWEEJK6JGhha8W/Fu7DD09YrsIGfB1HTNl3JcPrG9s1KSfHAG5tP2osY5Q9y3CPao1NAn3FZHQdL9n97t8O/Oul8MR8bWeM9Yq+fVuz8TOrTZSsearNBdPzFqLzL2LiOtsC/JdulRCT59JqTAtalhBppQnYk1j7rqWo/IVuoTGqE0dOzIEuVB5R2w1mo3Jpctx113Yuwb9ygmo/HcXdHQFbtE/eJL77rONIiKyXqgCxz3OW34t7ltcafeQxc4c+DpaFVvzmjpIu3K2Ox5kN2eLY1kWZfqyb2/n/rJuFyL4RrvyYYz8UYkzr8hdiQTqQkZ2POjnOgyAtcb7CX9mWrvZdLVisxtYae1uUid/8cmU26u3209g4V7UZYieAzsojdt9pQiS5d7M3wL/0ClZb2xXirE72tSxnQSEsHRa6MlgOyNwNZl3ksWi54GW9z/5dohhWuHuxoDAfoea/hsVq319xvDUfi/LuVRWEEJLaJOwSvauhFpliMpFMLhAX4o4u19aDAX2DLa6tbIPx7aF9+M5XgXQxScdLIn3lZJSl9bvniQLcEerCTfVd8v2Rv8bYNw244dqqpujrRKf8P/1XWPQ/Laj5C7DYnnSlVWKfmOzLUWrXzcZGMVkaE5uYsPfWlaB+BNxO/W0ngMoKPKPGFnNLUJkf2zrkjvO4IX7/z2w3+L3IXFOi7VfxfU8QdwX3oedQPf4F92P57YdC7G5/yT4eMc9viDJ9TMLHqxCAS/Px/WXTEX2tXgpDrW8UYo/94OgiLE0Ic1+kW1SIMMva5P+fcmxbFv57czeEhZAc+8VC7NiWV4NBxkSKHejrmo3Sygix6LCQWZYui3wh1q1tR9tu8klbtkoIwxM4qayi8hgMla4KH4Mu6OkMoXBahvpGCCHeIvkxbBEixTUZ2Un5MTcvtwI52e4tGBqJ9DXdZprbK8ItZlh/UIUvVLvD5Snj8RpK8F2J6huXy0wiLQxdqEOBMUlKS4zNL6YlL7bIJb1drU631dylqBS7NmH6unBLiIyvrX0sS0mDarSYgyxpHdvahbv/4N6SJcfe4SqdtQT/CqnGBIk59jEx3aG2lUgK80jhq8WwtRSeECJKs2RGJAc4XN7S2iXEb11Atevu739cQShCkBVEDmBkDNsox5sNRArDVhxvk8LwK5xsFvcMK9z9pv5D64zM0LaF5/Hq8tE+WwghxB3JF2y+bExQH+OitwvfD7evxoTpw4+4T6Sv4apDBe633F4DMlyl9SfcdkuIM8fEPW+D7TL7WY6Y3N2KtvypkDYBw2WkTZqhrn+YHxwxTWJy+nuX+jSyONxWqoRdbolQ4nAdGyXCvdxRAvxsgEtzaByuUlXicU0PzhBjPxjSHYpWVC61hJMpfAdzixpWJnThsrQyif2wLiCTFcL7f4DLe25ZuO0XQqDpoi1SkMky5qIsNjKGz7QeSwuh6UZ2Q9ryN/DpJ+eRd2IOXjykny2EEOIdkijYzqO7pAF3LP1VePK0rW3S+hTAd8bnaIj2PRF9h4nhigwG4rBihEmkr4FtnTPjp5yB5xrp2bhTfYxGIsJRx3ChWfFDBhdQJ2b80lXLkJY+DdM0l5gM6nZYYCStVvapGdMU2TwYxsRZWZXERANF+q/wIztGLRpW3Jofk4UAjhYXKfdtNPekdMl/v/UPEYki7nCuU5wHA5IONIYYex1DXGsWNKPI+K9o2aIC0wWuCxWZrKA+nq0dOL4aDqvs3AIj7uzlkQrYf2CqOC7D7st4kL/TEaumI13vEL+76gSmyWNcVbslc5oPzZ1WvjUhhHiLH9z47tZ/1Oc4kSLM6TaSFgoZ4G0hs/ZkVp7krgbxwUgykHFAsfvKjL4vtkb60KRlZQMmq8SASPHn2La0suiTpq8C98eRPBC97xDbjeh31/YK3NrahZ8O8ptj/73W3zoE0uW1bypaIh6pIMVXQdcq0yIiLS1Lq2Htamn5esOKTZL9ZcaeRAiDlux9eBkVdrvM2LMmeflYCQT2IfvILjwjxu/gC1HcnFJcWFYYfd0GJajXgsuHz2DHDsx6aeW0xtoak0BQe/xLRH+9TWZ6Olys1jiYff69JmxxM8bs8irVV19nPu4+sQr/XtiCiS7GfnDMfdy1KtIyKbMwA0DwNBb/JcLNGbGP9fGTFrPKX1TjeLY5/sYx4hjAyPExt6OvXlrrjN8yYGwF0iJnHIeyn3WcmE3yd+xV27Vwbt/a9sBtShzHrNovdlf9mBOY65XJFPEfa9I16utczWewEUI8ScKCTZ/ECCFkLHHcrMQJBRshxMskP4aNEELGgj75qBL3yQaRpGVNAzouR3e3EkLIGEPBRghJbaTbXyZlGM8cDLti42beRhzIqYSP7xIlhHiQBFyihBBCCCFkNKCFjRBCCCHE41CwEUIIIYR4HAo2QgghhBCPQ8FGCCGEEOJxKNgIIYQQQjxO6gq2C634yXNNZqk4i6S8BenaWfitdT7XilOqenRpx+5frkNTsl/r5CXag0jL24F3rwJXm3aIz0GcVk1jRx/e/V0Z0l6Xj3Noxx/zyrAySYNgvVzcKB55XITxm/joClfEHj95vqq2eM/bMzV4aO3BQZ/75sXjJkw/3q6wrpWi7OtQ9TEYyetr30G8GGNfEjIeSEnB1nekGT95ayI++3MRvhHls/x+zHBcMDqw074wNMF/xOVpPHku6uU6X8tAsaoaXfrRtNaPi9XbUDTcZ0kRz2G9XDxU7VM1o4U8nuZg93DfjTsSOCZtVZJx7o4gsccvF2tF26ef1KNM1SSLsTtuhqbvyFk8jwz7GvzNqhzVEoORvL6mP4OAfIYeb0LIOCYFBVsH6vdPRHPVXFiaJn3pVFQ0XzXv2IwJ4RLaV+aZFxJRduIS3r5mLOpp+g+9jM2oxEvL431tdYpxfyaKcB9+PgWY8uB9wOOZyFJNY0c6fj4dKJoqfo/4bVmPA3MepGoeEXK0iV4We7KXVhvt3BUTO/a3YecF1Uw8Q3fvTRTnP2hfg73Awxtb8EqH31s3KIQkkZQTbH1HrogL+kzMV99NcrCg8DpOigv7qcZeNBbORP3SsOhJX5qP31pvUo+8w3djyjeQd/7NDuF3ap9lAZBtrXhbWv4Mq0CHchdYy5vtp/RtD3DjtuOdcuCVbc84XuRuulxqcE6a/C33SITp3+E60dwysv7FQweVy0asQ7pg5Gf7LtS0wNh9R+vudMqTYh4O4DH5OTeA/j89CaHdTKS79PV25SotM4rTNalcl6ot7XfHcNWu34F3m6S71XRtnn7dXOaP9p8V0ddwf4Z57IVa7DdMm+n49Z9q8ftReqWkc/zEOKl6N2N/rsbqFy4vHupX9QXYHAJq/c42Hb3/mE90Fy7h+Y5JWG+du5PnYn0hUHXK7Tk6OOa5YO2XiL93gGsymWEJEedYFLddjzb+keMTE+t8NspohlH0o/uK+jgAp4XU/fVVEtE34hppeFbs9mgu1TQUrS5F7V66Rsn4JMUEWz9OtgLFj4gLui5+xEUhK2OCaO/AyWagYv5g5nlxQVjfi9yt1t39TFQ0X0qS2+U6nu+dim+2TkLj/kvofrYIzYU30fg3a93XUbj+BtZb2+3oRb1uOTjzAWp9i5AX9Za1DisKuhCwXC+hSrxjTTZiMn8H2wzXiek+ATa/HL5gNZcfR2aLuPP0iXXszUaopRKFwQ8MUXCuRkzoOfWqr3l3GteEMVI0BDHrytPob6tF/55cNFW/Z8e4XW16D/i/ol62tW3BHryH/2PPVH1YczwTFxufRpFYxxtTt+BieTp2hExhdvr1HVgzXQhEq+/lYNLi1IaNmHR95dNwwB6/TqxwTOoxxl70XREsVX3lGIu6QD1eXZ6GhzeG68rqzXXLIttsgn4Ep7UY9dLtNtYTXV/vDaBwin0zJifoQnE+48o/HRP3cGkuLxj1v7f/UB2wzdr/YjxQiT/o55gYzxXyhfOyXZybKH/ZnfCSIt7fiVda1Lrrp2FzgS72RwJLULUJYQ1xnWtT4il8I3tq31UssCyn6vrq1kJ6ap/TM/KN5kWRMcszpGdFtX228gYKo8Uuz1sszpHjaBvj05qQkSDFBNt1dHdMRNbkfrz9qim8Pls5AcUZk1R7bKR1rionA3773dA52CQFVuvnSZgQJuDNYiUUHduwEO2v5avJSFoExX18b/jC3d/dKaqnR1jXLHziwrwRDxufc5EXAC52q77pz2CtNgmnPbEIhaEu9KjvCKy24+HKVuvWu3a0ycl+o2VGMu9Om4+edDGJ6YHWWoliPRgWjz+Niy+o35X7CLbgS/zdNKNhSlEAv7bNcenwLUpH05Uv1Xdgy0rLWpeLdY5AwHaEGnLxvrVeaUVbKcTg8XZloRsbzp2oE4LKGlsZt7Q6YsIZfOxlXwQWq7Y05C0R6iyel5crcScZcNzEIJpVLy4Lj7hZmWHdbEWzlKiEohmtafhMxjt13EC3akqIYf69iZC2fKMWj2qOUXNnr/ou8FUiZJ2D6QvwpC+EYx8OPYL9Hx4H9FjXeaXGTVmbCyup06IbLkNbWMX10hBMeXhTXOqKbXFVaHsw5q+yrnGSgde5oRjsWnzq1HVUbA2v2wiD6RA38ANCXTKQKfZhj7aLCRkvpF4MW44QbNc+R6M4MaUokrEUuRnRZU5Upv7YU3EXFj2dIfUpXiJcLgWVkEaJIem7jIvSeqNdsB/yCwHgCivQOqLsjnTnjgBXj2Gl5dIUZVa1S5VwtQ/nhWh7SuubtmaUXMCD0o+eDqfL8qFf+lGrWocic5oQaMpaKtfVdjSEwiULRnwMTOtdZHnDXaKMFXiuW0p00dZ8KZxQJC0sX95AozznVXPKobuzRfGVxzrP05DpInZfIq8X0mIYPm5M97cbrGSGyLJ2nlogEfTsfVEMC6lL5q8SQhBhMR+2zJku2Krt4fX+5LlLqFKtTsx9aN/QEjKOSC3Bdu2fYsoVyIu4USFP5AnIuk8KN4j/JyFLnKwxY14i3CuGG8YDGJPvMDDcmhB36daFV7o8VdvQWO40rbgSXSNsYRuUdvyx+D2gfItya9YaLk/35OJ91c8uevzcGKG7LM3iTvykZU0T/1qi2zwORiNhJWELm0b6I2l2xmB6xkTx7yRHQpFxfnr0JmtoxHkibqBQbbphZYmd8WkK+FlZ7sawUFuvVdyIruFb2IZAhqlsl5awsCBvdn8xEqTht1Wq72sZaBcCTXen6us1S9iyFya+fUhIKpFagm3yj8WUqyEtbYY2k7Fr0lUqTvhnJxl36fqJ3nek1YixMCYHR+yYzDi9iYpntViJmNxEt/K+2fE1ScKYfONxZ+nYrtR+NL3s0sJmuF/EZD+sRIMxtLAJ7OzNq8fwf9xa2Kbk4r8fb8dTEYkGcWFZS5ImTE0XWa1/OLFHYqz3SndqrP1vWhtqTyTXkpiQhc2BGdrQaMWtzZ6CChnraQeqq/PTEZNqWZSTHGRvu0fl+t1bOd1giwdx/PwhloXtTB02h0qR50J0PbywFM1u490iGFELG8wbaIMLrcO/Rjqu9WlYkD8BVdvdPLutFz0hHzIz1FdCxhGp5xKV8Szywi7jYNbfQPFK4Pn1MlhVZY7OzjcC/3Xz+SbMNO/EpDtG3blZZnUZ5LpJxZvZWUjrxSQiJw5jGesiYca7Weud0Ts1zrvHITCCZbWAcpc8XCKTCPzqLrkAPUvcWtjSULTbTDTQ77I9kXQwKLkokUkEa5RLs7gH/+3awiYzP81EA9slKkpcSQeGyBX/xxX7FHZZG+4wa6yUUJaTp5FooI2BO0GoMuIc7tSBfR/eWI8y+/gY+/F1Zvq1oTE/T3ush4yRMgPVrfMTW4vs89NExeohiXFK8zbiQCBsqexZrT9TLfb4hTM1pcgLYXOB/GyJyVz8RiY3WGNU0IUnIy1s4pz3Gf1F8QMHPrHiFYfYrvjNZqKB6muUkU46GAIjq/emuB6r8X1rIt7ULkaxr68RGaIR1+b0pYXKfa4tEy3pIGbyFiGpzQ9ufHfrP+pzCiCf09RmZGA6L+LjA+mq8B1dhNAoWapI/Eh34IqOSg+MkZzQpbjQLSNm3bElLc5s0PGGFElGhuRwrHpk/BLtnCBk/JBiFjbT5ekwjV87i50eeBp6Mkhbvm1g2j/xBsqS4g2xJpGuH/XRou8kjom68Ru/o2InKdZIFKzHFFGskfFKilnYTKRpfcb+m+qbfFxGtODTVEVOSnuRyQmJDIVhaXJm9sqYNk5Y5LZDxpe+DLxE7wQZx6SkYCOEEEIIuZ1IvaQDQgghhJDbDAo2QgghhBCPQ8FGCCGEEOJxKNgIIYQQQjwOBRshhBBCiMehYCOEEEII8Ti3p2DrO4yOWY/i0s7zquJ25gJq5j6GOS8cBh/XSwghhHgTWtiSyZlduLTmML5VX5OGEJjrpKiyywYc1F+id7aWgosQQggZx/DBuclECrY92bh/zzLco6oSR1rAAkDwNDbOVVWRSMG2bypaXl/Gp3wTQggh45AUtLCdR/esXbhmuTVl0a1alpVLb9dcn9d2qjpROg59pWolcr2PovuM+moQWWd+t/rb67W2VdIAhKrwhb2M+J3mEgJnX+e2Y3C2BXUoweJoYs2yvAXEdlurUWBb4GrRbrfLz8rtKYtmies/vEEtL8quC6pWIUWgqNOXWXdY/83aOu0SYfmLinxB8zo09an3QhqlBudUq4F6b6dVdlv7X9bXHBT9Zb1Yx5mDeFEus/Zg2Lro6Cu3o+pt1HZrjD1ECCGEpAQp6hJtwNcLu/DTix9j5sWjuBtV6NMFkBRNVvuJCtwR3IceNXFP3iT7fIyfBczvYeZgoqj7rkWLa+vrwi0hliaqdzNe29mCicY2ZQnirmDAFHPpy5Aj6xpKAF8F7reX2QDzFadfoWdNALe2H7X73rl1SYQ4HIS5BSgVf6/fEmE6YrtvnD2N80Gx3fxytMjPRilDrlpE7iv/3H3IPiLrgygVwq7urNmStmyXsXxLZb5ZEUldAAVdq8x1im2EKhvs39C+K4C60qDZdqQcPlFXGtyFZ1y9/zSEzQXyfann8eknLXjFV4eg/cJ7IahOLBb1sk2U+lLU+jVBF6xEz+rzOBAQ6/B3IfBJPcpCx9Emx1e+T9B4MbjVd5rYToQYJIQQQlKQFBVs+bj7hCWG7sU9S/Px/eVe45uJ1p7+K/zI14p/682DMNkvxV2LbRX79sMWYLtfbUeKPWubElPg3ep2YSnr+yv+FxVIX36vqpiDSdvzneJwUGZjoxBF9aVSeJmWrBoluNwSFlKzsbgU6Py7S+ueFIEbZpufDeHYhcuG8L2AD+rEev9LtYl9vEhoPtfrFZTVWy+3T0PeEh+aO60BysXajWG5iXmLUYZOW3DDV4nfKAFdWF2Kh82PBv0fHgeqt4Vfmj+v1BCDbQ5hLNYvxZy+DUIIIcTjjJ+kg46usFvUV4B7bEvPvcjc8zGy1CQfE0PcNeCGMcF/hW+PAD96whJZAulu1dyaXwdV/VD0duF7h6v0UXyxtVU1uiN3g7KeBUtQF4h0T8bC6U6V63ljmfY3DYsHkC0EWt1flBtVCNLjrflYlJfoek3O1VguTVn8qFX1Q9HTGUJzeYHWtwCbQ6qREEIISWHGj2DLyU5CoL9prTMsX4ZVTBN+Mk6tpAF3NVjuzmhu1Rg4XKWqbJqjGuNgbhnqS4FQ1z9UxVhwL6b/QvxXFzBj15ZWA5UVLt2hsek/tA4rgqU4YLlEpctTtbmhsLol7E5VZa0bsU4IIYR4mNQXbEJI9W1txV0FwxA/UbjniQLc0dGFax+24M41kdme+fhhhvp4ZtdAC1tGNu4IteDbyED3eQW4KxQRZzdsTHekL/sB9V3wwFT4Wk/gZOR2Rwqxz/fWlaBeWvxUSdxqp+HLRqb6eK7GvYXt4YWlaC5/OUqigY5KOtATFQghhBCPk6KCrRX/WqjciwurcGeDS5enlqkpxdb3W5cYnx0Zm+nL8NOcKny9NdtONjCQ9QFtu3uycXekhU0sk74d4WXsLNE5yFKJBma9WdwkHTgyOY0SQGflEadAEtvdVglULrWWiZKgMICvcPAFc/mCytawtSwyWzQaYnurtZg6q7h30w5O2vLVKAtVwqfcmsFple4tbPM2qkQDyyUqS2TSQQYyZYaElahACCGEpAAp+Bw2Kbr24YcnapGZBBccGQbycSFLr2C1no1q1J3AoiNuM0XHDhkjt6KjEqHdz/C5dYQQQlKC8RPDRkaPf1xBZCx/f9sJUZeN6V4Wa+oZbRRrhBBCUg1a2MiwaN/1GPx16ouBjGnTn/9GCCGEkGTBV1MRQgghhHgcukQJIYQQQjwOBRshhBBCiMehYCOEEEII8TgUbIQQQgghHoeCjRBCCCHE41CwEUIIIYR4HAo2QgghhBCPQ8FGCCGEEOJxKNgIIYQQQjwOBRshhBBCiMehYCOEEEII8TgUbIQQQgghHoeCjRBCCCHE41CwEUIIIYR4HAo2QgghhBCPQ8FGCCGEEOJxKNgIIYQQQjwOBRshhBBCiMehYCOEEEII8TgUbIQQQgghHoeCjRBCCCHE41CwEUIIIYR4HAo2QgghhBCPQ8FGCCGEEOJxKNgIIYQQQjxO6gq2C634yXNNZqk4iz5VnRDXzsJvrfO5VpxS1aNLO3b/ch2akvIHeZT2INLyduDdq8DVph3icxCnVZNnGanf3HcQL/5yDh4ySg3Oqeqx5TY4BpOG3FfW+A3cZ/2H1qk2UWraVa0b+tG0dg52n1FfBxB7u2NN35Hm8PXZ5bX01D5r+Sb4j/Sr2uRwribWviQkNUhJwWZcDN6aiM/+XIRvRPksvx8z9nWoVkkHdtoXizhO/slzUS/X+VoGilXV6CIv0n5crN6GonRVRZLK6dfLsNJLs1v6M3j1k/P4tKUShapq1DhTg4fWHhRHnXfQJ22zNOPta6pRMBwhMLLkYq0cv0/qUaZqdNKWvyHaziNU7VM1ySL2dscUceO7aT/w5mvm9fmbP+djvmqKxfxV5vLNI3AiPFxSiYt+3oSQ1CYFBVsH6vdPRHPVXFiaJn3pVFQ0XzUv3oaV7BLaV+api0URduKS46LvVfoPvYzNqMRLy9NUzTjl/kwU4T78fAow5cH7gMczkaWaPEsq/uYUpWKrNdHLUojfTlYNF1oxQ577qq258DoKk2VdJ8njyxtozEnDAmvcvIC8Maqfhs0ve+sGhZB4SDnB1nfkihBjMyPu2HKwQFy8T14Qd+iNvWgsnIn6pWHRk740P3zRd7g9RXFY5mIhrXbOu31pDTCtd7KtFW+ru3//kQ68XSHXby1vtp/Stz1gomnHO+XAK9uegVOuSddHDc7prrMIq4jD7aK5R2T9i4cOKteJWIe0qMjPtmvGdLvYfeNy2STAlCexvy2Ax+Tn3AD6//QkhA4yuXoMKw13Yzv+mFeGNFl+dwxXVbPcH3Z9ZJt0Ww5YVndjluGpBqCp2vxslNe1v9lwe1rrNvvZxPrNI4ru+pojxjM88ub49hvuHqvd4fZxuFutoh1L/jogVAmf3qa6GvQOfsyNPv14+63rKNbO/fnFGSju6MfJRG/G5Hkhjn39PArv54GuSWO5ZJ0r1jmpykC3nT7+8bjMx+jcFvT13lCfBuK0kDqvp0Ph7NuEneJ6H8aFV2VeKV4RN8Tv0DVKUpQUE2zi4twKFD8iJI0ufoToysqYINo7cLJZ3KHPzzEXH4A4qdf3Ite+g5+JiuZLSYqXuI7ne6fim62T0Lj/ErqflRaAm2j8m7Xu6yhcfwPrre129KJev+Cc+QC1vkXIi+oKrcOKgi4ELBeImGTti46YfN/BNsPtYrpe4LiLbC4/jsyWFrziE+vYm42QdL0FPzAu/OdqCrA5p171Fct0+B2CYOxox1N57yGrsRb9QiRt+eg9NBjzTR/e/V0Q58u3iHrZtgV78B5m6aJrEKYUmX3eLwGK7P6ivJBrLiCF4povscfYpih77sOa4rGOrbNc5C1qjOoxq7zAMak3i+/BaWa7dLvV7rXGXvR9uRKw+taXijofXmnZiIctN6ys81UiZKxbFtFm9JWEsNk/yDE3JlxHd8cE89w3MM/lRtxE95eqKhGCfvg6V9v7qrm8bhTiCYUYO7FY7Xtzu7V+pyir9e8V56/ZfiAgzmGXwmsszm3LnT1j/00xPL2YESmexDW7HnPVtbcIn60Enn/VpYVU9N2kWVdl2TRbtYlj/e0K3asyE7n72yIEnSQNeUvEOXJi9MQrIckkxQSbvGhPRNZkcYK+agqvz1aKi3jGJNUeG2mdq8rJgN8+0XOwSQqs1s+T4FaZgDeLlVB0bMNCtL9mxXJIi6C4XPeGL6D93Z2ienqEdc1CTbTG51zkBYCL3aqvmHzXai7UtCcWoTDUhR71HYHVdjxc2WrdeteOtmApDmxUgkW0FK0WE9XRk7bYGxyn1ccuSbTCbNmzBb82TFi58AmRdf5zMULt72HNR7lYZwf4pePX//dpFDX8LWFhdfXUx0D5KrVNQe7T2PN4O0JjeW3vO4ljDhd5Ln4jRZk+4QTq8apqd4y97Bvy4cknVN95i1EmRFhPr/l1aGIcc7GIatUTJQ4LT9V2dSOmT/Y2cnKWbZcAcf7LeCf9PBo2Urha54KxrzrRk/hFYQhysdY+/wRRtltW/4Z9/j68UAhsdbMVm7E5t60YNHlNltdAK8bY9nZMnotNuudDiO/ijhvoVt+HxvSiDODa50K4Z2Cnve4c+MVvqDo10HuSljVNiMnLSbtOETKapF4MW44QbOoElaKou/cmcjPCF4EhmfpjO/bNS/R0htSneIlwfRRUolm1xKTvMi5Ky51+UZYuMldYAc8RZXekO3e4CJGmzWOPvVCL/dasNUKxY91X+pyu0rwdQhyqxrGitwvNDpflHPjKXR4n6dMxSwi0Yx+qqUlacFGKvHnm1xHDst5FFl2YxMCa9HVLSVi03cTz69sM67Vs3zS7X4ybOFriOf89hu7OfuiXfjFGMcjIdpeY4tlz2xLbqhgWUpfIhDBxc22LeT2kRMbMaRY9WQwrXzTkPtRvaAlJIVJLsF37p7j/E8gT1KiQF+wJyLpPCjeI/ychK0fcoUe5s7K58k+HNS1WvMVokjlteFlkhusDmlsrrmxDcReuX5RlcXVhHnkL26B81OO8I/+iB03qY6I4XKWq/N6dzhg5HC5LVVyJnwxkikNKukytCbusXnd5jhBJsLCFMS3RJua5XbwyT3OFmW5Sef6nIjIWboW0hNljO0TGpxTwvmxkqq+x8d65fWpfG54Xx6VleYs7G392vi3mm6cKgaaLNs2iZ5dVUUJj4tqHhHiL1BJsk38s7v80pKXN0GYydk26StPw22cniVnqkiN+oe9IqxHcaprg9dgxmXF6ExXPhjNOYxOOl5EBsIWuTFnuSMhUb7tSzbglVz8rfQGelHFtw5pIR9rCNgi5j2CLmFDesHPz+/Du/nYhtJ42kwEktqAz4912GJ/DZE1NR9Pxdi0xweQxXy6aqvc5Ew3ixLKWJO15T9JFFqrEH4YTe3SmzinkRVkbaV0zrA3H0abfwSRKghY2BxdaxTlmxa2lYUH+BDTuP2sHqpshDhHZiAMSa5KD7Q4W63dt5XSDJh7O1cSysIlze28dCpcsGPoc8/K5bXs4zLAW1xa2CMyYZcXsKUZM8CYXscixQ08I8Tap5xKVMQ/qBJ2x/oa44waeXy8DTlX2mLwL003nomzCTDNLVJrVxV1du91mBqpad+x2FpJhqr+OQmMZ61lPZrybtd4ZvVOT+7wgNTnHG9gtny9UGPSrO+EC9Cxxa2FLQ9FuMxjZvosWxRtJB4ORi9+3BTDHdl3uwJrpgbC7NDeA90tkwoLZ1r0yIASekylFq8xEBcv1aSUsyMxPI9FA1RslvqQDI8ZI4CrWS2FnJhqubMuNZQWey8nTTDTQx8iVIFQZcbo7dUBfIa5ekkkqBVZ7PFmII4Ez0+8n28W9l/ZYj/SlhWag+np1Dram4TPt8T4GRhyYIGlxSuI82VYJWGOwNxsH9Geq2VmeUmyF1L60MrXD4QqGyLPOUyWk0pavNs55a4yC0yoHWNhq/WabPLePLWmx4xVjb9eb57aR1Stups3xbUN3vm5hC4+9vBFu3N9mfLbc4ZEZosbjXeyxF9dm5T7XlxmYdNCPtqMhlC0ca7M5IcPjBze+u/Uf9TkFkDEQZgxL2C0yfpCTt+/oIoRG2lJFRgbpDhTCa1Z9FGvWaCMndJkVrB9Lss4PHHBkg443pEhSGZLDseqR8Uu0c4KQFCLFLGymy7Nqu/aE82tnsdOFKTwVSFu+zbCKDMsFRsYQZUnxilgTGK6fCM6dqHO44MYbprWSYo1EQd5M+TujPOeSkNQhxSxsJtI8Hs4Cko/L0J6GnvLIoF/57KVwOj8h8aMsTXq4lUxgoHWB3IbI+NK2hd64mSJkuKSkYCOEEEIIuZ1IvaQDQgghhJDbDAo2QgghhBCPQ8FGCCGEEOJxKNgIIYQQQjwOBRshhBBCiMehYCOEEEII8Ti3p2DrO4yOWY/i0s7zquJ25gJq5j6GOS8cBh/XSwghhHgTWtiSyZlduLTmML5VX5OGEJjrpKiyywYc1F/YfbaWgstCPtF8zN+JSQghhCSX21OwpS9DzsWPMXPTHFXhZS6gZmk1pgVP4/xZq+zCM0l7C8JsbJTrfH0Zn4BPCCGEeJQUFGzn0T1rF65Zbk1ZdKuWZeXS2zXX57Wdqk6UjkNfqVqJXO+j6D6jvhpE1pnfrf72eq1tlTQAoSp8YS8jfqe5hMDZ17ntGJxtQR1KsHiu+q5jWd4CYrut1SiwLXC1aLfb5Wfl9pRFs8T1H96glhdl1wVVq5BWO1GnL7PusP6btXXaJcLyNwjyNTEvHupX736cY5Td2n7X651t5js7ByxbI/9a+Uov832ezWKPrbD7r0OT/ZvUOz+tNqOfE3Pbeh9CCCFk7ElRC1sDvl7YhZ9KK9nFo7gbVejTBZAUTVb7iQrcEdyHHjUBT94k+3yMnwXM72HmYKKo+65Fi2vr68ItIZYmqvfPXdvZgonGNmUJ4q5gwBRzlsWuoQTwVeB+e5kNMF9x+hV61gRwa/tRu++dW5dEiMNBmFuAUvH3+i0RpiO2+4a0jgXFdvPL0WJb4MoQfvW17LsP2UdkfRClQtjVnTVb0pbtMpZvqcw3KyKpC6Cga5W5TrGNUGWD/RvadwVQVxo0246UwyfqSoPuLX/N5QXwda7Gp5+cR6jah9q9B00heaYGvvJpOCDqZdun9aWo9bsRULlYK5dvqUSh2GN2/0/C72Q9V6NeDG7Ut+CVDr8hHAkhhBCvk6KCLR93n7DE0L24Z2k+vr/ca3wz0drTf4Uf+Vrxb715ECb7pbhrsa1i337YAmz3q+1IsWdtU2IKvFvdLixlfX/F/6IC6cvvVRVzMGl7vlMcDorpsqwvlcLLtGTVKMHllrCQmo3FpUDn311a96QI3DDb/GwIxy5cNoTTBXxQJ9b7X6pN7ONFQvO5Xq9Evoh8oykr055YhMJQF3qkBWxvHQqrS/Gw0SKYtxEHAiEc+zBRYdWOtqAQcmqbYqsoWl2K5qMnbYujJG35Gw6RRwghhHiB8RPD1tEVdov6CnCPPeHei8w9HyNLWcliYoi7BtwwLF9f4dsjwI+esESWQLpbNbfm10FVPxS9Xfje4Sp9FF9sbVWN7sjdoKxnwRLUBSLdk7FwulPlet5Ypv1Nw+IBZAuBVvcX5UYVgvR4az4W5blfb+GSBeGYufRn8OonG22RNitrBKLp+i7josNVKopfqE5CCCEkBRg/gi0nG/eoj8PHtNYZli/DKqYJPxmnVtKAuxosd2c0t2oMHK5SVYaT9DC3DPWlQKjrH6piLLgX038h/qsLmLFrS6uByoqkJUJc7NZtXv3o6VAfE0Z3laqy+xkmWxBCCPE8qS/YhJDq29qKuwqSk/F5zxMFuKOjC9c+bMGda5ZFiMB8/DBDfTyza6CFLSMbd4Ra8G1kvNW8AtwVioizGzamO9KX/YD6LnhgKnytJ3BytALlxT7fW1eCemnxUyVxq50kDXlLfGgurws/luNMHTaHShFYHpZVtqAz4t1C5meL9OmYhTq0RcYHpi/Ak746rIiSaKBjJTzoiQ2EEELIWJOigq0V/1qo3IsLq3Bng0uXp5apKcXW91uXGJ8dGZvpy/DTnCp8vTXbTjYwkPUBbbt7snF3pIVNLJO+HeFl7CzROchSiQZmvVncJB04MjmNEkBn5RGnQBLb3VYJVC61lomSoDCAr3DwBXP5gsrWsLUsMls0GmJ7q7WYOqu4d9MOjowhC1V3hl2X/k680mK5S9NQJP/Q8gKzbW82DlTLdAedXKw1EhVUfzvjU/TdbSYamPVmiUw6SMuaZvxfe2LoPUgIIYSMFj+48d2t/6jPKYIUXfvwwxO1yGRg+NggHxey9ApW69moRt0JLDqSzGfEjQHywbsFlZhVfx5rXd0EEEIIISPP+IlhI6PHP64gwhGJ/rYToi4b01NWrKlntFGsEUII8SC0sJFh0b7rMTiTLGVMm/78N0IIIYQkixQUbIQQQgghtxd0iRJCCCGEeBwKNkIIIYQQj0PBRgghhBDicSjYCCGEEEI8DgUbIYQQQojHoWAjhBBCCPE4FGyEEEIIIR6Hgo0QQgghxONQsBFCCCGEeBwKNkIIIYQQj0PBRgghhBDicSjYCCGEEEI8DgUbIYQQQojHoWAjhBBCCPE4FGyEEEIIIR6Hgo0QQgghxONQsBFCCCGEeBwKNkIIIYQQj0PBRgghhBDicSjYCCGEEEI8DgUbIYQQQojHoWAjhBBCCPE4FGyEEEIIIR6Hgo0QQgghxONQsBFCCCGEeBwKNkIIIYQQj5O6gu1CK37yXJNZKs6iT1UnxLWz8FvrfK4Vp1T16NKO3b9ch6ak/EEepT2ItLwdePcqcLVph/gcxGnVNICrx7AyVvuo0o4/5pUh7XfHIH56Ujn9uliv2ifJQt+3xvqT9bv7DuLFX87BQ0apwTlVPaacqcFDaw+iX30lsZDXGGv8Bl5r+g+tU22i1LSrWjcMce3y4nGj0XekOTynuLz+n9pnLd8E/5HxcvSp44PnU0Kcq5mD3WfUlySRkoLNOLHemojP/lyEb0T5LL8fM/Z1qFZJB3baJ14cJ9LkuaiX63wtA8WqanTpR9NaPy5Wb0NRuqoi44A+vPu7MvwxnrnPy6Q/g1c/OY9PWypRqKpGDc8JM+e1xiiOG8h+vF2htTmuU2NFLtbK8fukHmWqRidt+Rui7TxC1T5VkyTG8rgZCnGzvmk/8OZr5pzyzZ/zMV81xWL+KnP5Zs/9QcTGMMSMvgHm4ZJKXPQn1/iSgoKtA/X7J6K5ai4sTZO+dCoqmq+aA2IMziW0r8xTJ14RduIS3r5mLOpp+g+9jM2oxEvL01TNOOX+TBThPvx8CjDlwfuAxzORpZq8TS5+31aL/j89CfHTk8pjL4j1tm3Br5O4Yn3fZk0VZ8v09KT/biKZhGZ1rTGKdm06ta8Nz0+dqdpmiuvUpXFkiRlHfHkDjTlpWDBZfb+tUYJ+9zMY5zPRyCJvUOqnYfPLybvBTDnB1nfkihBjMyPufnKwoPA6Tl4QF8jGXjQWzkT90vChlr40H7+1TkSH2zOeO155J93sEH7SHG5efGVbK95WJnX/kQ51V20tb7af0rc9wI3bjnfKgVe2RZ4k0jxdg3O6OyHCwuBwYWguCVn/4qGDyv0h1iGtE/Kz7eaQFj2rn14/wkx5EvvbAnhMfs4NDBRAhstUughFKX4PTaraxLRW2e2vR/xmva8oKyNvbwZrt12vyu0pi+ZCNN2Lqj5im7JNrsd0a5rFsqZZrs41HwE71oTbndu16qO4fh3tomjbjrVdA23fTinagv4Xcs36EUd3uc0Rx2D4aDWPyX7DXWC1O9wGDreZVbTj318HhCrh09tUV0mPdi7o2x0TxPn+WvMEvFmcoypy4F85AY2tnycewiHPZXG+6ud++O81z2t9vxrLJev8tq4jqgxw+/QOfq2KzeDHzUjT13tDfRqI01XqnAOGwtm3CTvFHBVmmJ6gmAwx9jGPG7WsNQbRjpeIsQ+ffy6OOUff0Qj7Uft3vdAEuI5Ce1+Hx9Caw/VxssbIqNP1wQBLnYvxm1eKV1CJdyLPkWGSYoKtHydbgeJHhKTRxY/YqVkZE0R7B042AxXzrQtkJGIHi8HL3WrdDSfzjvc6nu+dim+2TkLj/kvoflaayW+i8W/WusUBs/4G1lvb7ehFvX7ynvkAtb5FyIvqCq3DioIuBCw3hpiw7ANATGTvYJvhwjDdGHAo+uby48hsacErPrGOvdkISXdE8APjJDtXU4DNOfWqr1imwz/2k5wUKGu+xJ5GaXESpfFpFKkmyenXhfiZLoSIbGvbgj2Xg5ooE2JL7yvKft23LMVarHbR/6m895BltAew5aP30KCuN4bgEctfLI86QGiq3oE3pprL9O/JFeLMFF+W5WzP48CWPVG2a4hXURfxd5qIv0cI1jl2P/GbGvS/17ld+dt27E9+fF18WG79FnVc1WNWeYHjQt4svgenme3S7Va71zpeRd+XKwGrb32pqPPhlZaNeNhyp8k6XyVCxrplEW1GX4E4L1Z0rrb7NpfXjW2cVKTV5kIrZuy/KS5DN9CtqhIi6Idv1P9eIapOLFb73txurV8XzSFs9lvXKnFNEZPVH1xdU4Y+bkYCKwbNHJdezIicfMU8U4+5ar4owmcrgedfdRkzLfpukt4g1VeWTbNVm/h7367QPUEzkbu/LULQjRAxjpuY7nB50+TvFOejGvt4XNuRfaXlqcB5s5V8crBJ7lsjxEm3gheGDTiCRrHfZ8i5W7R9Jm6oqt5yM75uxy8NeUvENe5Ecm6WUkywXUd3x0RkTRY761VTeMkdXJwxSbXHRlrnqnIy4LdPGjGgUmAl444X2p20YxsWov01Ky5CWgTFpa83fCHr7+4U1dMHMUGrScv4nIu8AHCxW/UVE9lazYWa9sQiFIa60KO+I7DajocrW61b79rRFizFgY2W1SUNRavFyXv0pJo8Y+G8E7ZLEmKLTr/1HlC+ahDXYDtCDbl437YUpePXK3PRdLxdEyl9+H+noo1mH97d346iQddtsmWP5ZbMha8EOP+5yyOjJBAWYbmPYAu+xN8TVE5Xm97DjsefRoltGMvF74UYdPy92nanzH8URR/1JEcMDJe+kzjmcOvn4jdSlOkXrEA9XlXtjuNV9g358OQTqu+8xSgTAqCn1/w6JFLIWcez0bcTPS6Gz2FV0Ip7sRD97t3GurncLsSqvFmDEGxxWGkGZZh/b2LkYq19zRAM2K5+rTInK1fXFDfHzWBEtcqK4sKiaMWgyXlEXretuGjbQzN5Ljbp3ppH0lAcl+A2PT8DuPY5GpGBnfa6Tetr1alRiHEc5nFzrkHeTA0vvrr/w+POvtLy5KtDm4tzLPHzcwjkuK8y527X4xvH+KVlTRM3A5cTnhslqRfDliMEm9pZUhR1995Ebkb4hBqSqT+240u8RE9nSH2KF9MUbR/IBZVoVi0x6buMi9Jyp50AhrvJFVbQckQZ6ZiHq304L0TbU7qLcI1+URaCpvFpcWGw3Je6i/FLdH8EzHkw1ugLkabNRdI65rTAxUMfur9QHxMh1eLOervQ7HBZzoGv3OWxnT4ds4RAO/ahurRJqzNKkTfP/DpSWFaFyLLW1XbVXbxVtk7E8+s10SatNrZlXdywXfunOILlTadqT0F0d/ZDv/SLMRocY7JyQ0LHjbK+RhZdWA6biKQRw73mEpnEtnUSqrarvnoYjLS+ahY9WQwr3zhFzm/Ssh4+bgqw2eXwJnZ+Dk1x/oNhTWAkHrpIOIln/DKynUaUBEgtwWZc7ARyZxkV/ei+MgFZ90nhBvH/JGQJoRzzLuXKPx3WtFixC6NJ5rThZWQZbk1xZ2q7iOLKwCrFAe0EMIor0TVyFrahycX7yq1oFz0GznIxinKx/Esh7izRdh+yHjc+jBLpyLpffUyEy30OF+fVz79UnzyMw2WpiqvJMwOZ4jSwL+ziBqKsXnN5jhBJvYOfPQUV6iPum4hih2VdYLhJhWBTX1MNua9WSMu8PbbRM00tYnsOIhjucZOAhW0oTsmkEXFcWpa3uJ8gMDvfFvPNU8UEr4s2zaJnF2XpGY8U2u7ucHEjukbcwjZc3I6fvBnxZSNTfU2E1BJsk38spmsNaWkztJmMXZN3rWn47bOTxBX/ksOX3Hek1bjjNc2deuyYzDi9iYpnw1ldsbmJbjVfyoDEQlemLHckZDa1L4hmDJCrn5W+AE/KuLZhXdRGzsImsxnDLj8zhstOOpiSi/9+vB1PRSYaDIKRJWmTDt+idDu2bCQ5/XoQOx5/FD5bRabj59OBHaH49rXp4gzH0cn90VDdhy0rk5WlallnkxgALF0sIbdxSxGcqXPefIgy4IJu3K0eR1uyfq8gmXfwp/ZdQpUVtzb5QRTn3NRinvrx9lvXnXf0AstilewJyA6bOFPj3lrlBm3yOVcTy8ImE6lCKFvoQnQlctyMqIVNYHtlzFAc1xa2CMw4a4UU9mIu2hQzfnr45+dIjL00KoTd2+KmPYo3Z7DtPrxQxsq9PKzrTMLnp6EbBnFND4Vt4DHj3+2xdzV+JnHdtAxB6rlEpX9Z7SzpaiiWQaDrZfCfyhyVdzS6GVqUTZhpBhlKc6e4Q2q328ygQSsQ1M4UcWSVWFkhZrybtV4ZpJjUZ++oC1a82STyWS+FQb+66yhAzxK3FrY0FO02Ew30u5axTjqYUrQKe/AeZhkuTZkAEMAW1SaFz6//ZCYa2C5RUewg/IgMUDPBQGWjCmTigGl1i9I3JuHM1FlCMKFBbUcXjladKE9dfhoXIzJfH3vBTBiwlrG2a2efGsLUcvcqUSmthY1P47ydXRrE+fIt+H2S5iF5DMgYIxko7jpOTGDf8RoXbMutbgUQSzFvBozrx5UrMaIyqnS32IC+YnJ+SSbWFFjtIx24PAT6A7xFKRTXmvBjPcQNZFUe3oTlOmlDY36eI4NdIicziT3ZJYw4t7dVAtYY7M3GAT2I3M7Wk2IrpPalJQrCIRbGhGtdW9SNXdry1cZ1yhqj4LTKCAubtT5Z/EB9eGIdseNmBJlfnIHi5ktqfNvQna9b2MJZgvLmXQavy89WwkJkhugMx+OopCvdDFTXl3EGrQ/n/Bxi7GMy1Nhv087Pvcis1+eaIbY7b6NKNDDXb5bROnedc7fbTN/0pXO1c/cKsrbqY+9m/CT9aDvq8qbFBT+48d2t/6jPKYCMJxAnzbN6ts34QV7QfEcXIcTn36QUUnTNuvL0KD42I4nIydvI3npj7B/WLH+LzGTWj3/j9wEH9GzQ8YZ06QkRM0sTN4QYeOn8jMQ4bmVG8Dg+NxMl2jUtAVLMwma6PKu2a89CuXYWO5PyWI6xx7qDGZZbgJC4UHGIHpoMDNdBBOdO1DlccOMLZdGgWCMD8N75SeLEepTJgGerDp8Us7CZSFNzOCNDBvU6n6uS2sgTdS8yeZKmDCltYfMUUsBEZI/JQHRanAnxHrSwxUTGprYtTO6NWEoKNkIIIYSQ24nUSzoghBBCCLnNoGAjhBBCCPE4FGyEEEIIIR6Hgo0QQgghxONQsBFCCCGEeJzbU7D1HUbHrEdxaed5VXE7cwE1cx/DnBcOY6ye/ibTn8f6DQsW1tPYk/6Edet9h0l4vyEhhJDbD1rYksmZXbi05jC+VV+ThhCY66SosssGHNTfqHS2dkwFFxHIJ1qPysvvCSGE3I7wOWzJRAq2Pdm4f88y3KOqEkdawAJA8DQ2zlVVkUjBtm8qWl5flpIPGJUWtuC0Fry6PIUfj5rkV5AQQgghOiloYTuP7lm7cM1ya8qiW7UsK5ferrk+r+1UdaJ0HPpK1Urkeh9Ft8MVFllnfrf62+u1tlXSAISq8IW9jPid5hICZ1/ntmNwtgV1KMHiaGLNsrwFxHZbq1FgW+BqYTjejHb5Wbk9ZdEscf2HN6jlRdkV8dZaKQJFnb7MusP6b9bWaZcIy9+ghF8yLMuKoKq2kOJHtYVfSm3h7DvwBcKDt1uuV/sl1KKEXZ/qVTBGibZNWacvo9ZruTr9dWLs9ReXO7drbS+a61dvd25bbk+sx9qGLFGseGb/yP1ACCFkPJGiLtEGfL2wCz+9+DFmXjyKu1GFPl0ASdFktZ+owB3BfehRk+DkTbLPx/hZwPweZg4mirrvWrS4tr4u3BJiaaJ6tcS1nS2YaGxTliDuCgZMMZe+DDmyrqEE8FXgfnuZDTDfmPUVetYEcGv7UbvvnVuXRIjDQZhbgFLx9/otEaYjtvvG2dM4HxTbzS9Hi/xslDKEX5Ik++5D9hFZH0SpEHZ1Z82WtGW7jOVbKvPNikjqAijoWmWuU2wjVNlg/4b2XQHUlQbNtiPl8Im60uAuPOPidVrnagqwOacen35y3igH9LGw3r8mxsFor5+GzQVhMdJ/6GVH308dr0VRrzYatB1oLi+Ar3O10Raq9qF2ryWAcrHWWL4eZcb3SELid8hXhpnrPRCowwoZj5b+DF6V/epLzdcoGetwbvfhjVYfVaEhxeOKjnC/UDUcf68YBKwwXv8i28VvE6LwHTfHDSGEkHFFigq2fNx9whJD9+Kepfn4/nKv8c1Ea0//FX7ka8W/9eZBmOyX4q7Ftop9+2ELsN2vtiPFnrVNiSnwbnW7sJT1/RX/iwqkL79XVczBpO35TnE4KLOxUYii+lIpvExLVo0SXG4JC6nZWCx0ReffXVr3pAjcMNv8bAjHLlw2hO8FfFAn1vtfqk3s40VC87larxBkwWApDmyM/t7N/g+PA9Xbwu9RnVeKV3x1aNNFSvCD6NakM3XYHBp83QZSVKn2tCcWoTDUhR7j29CU1Yff7/rwQrEjOy4PsHbFRzveKQ+hbHXYjZq2fFvE3+sT4tUSf7nIE8fcxW7nVk1ByPf5EULIeGb8JB10dIXdor4C3GNbeu5F5p6PkeXmBayGuGvADWOy/ArfHgF+9IQlsgTS3aq5Nb+OdOUNRm8Xvne4Sh/FF1tbVaM7cjco61mwBHWBSPdkLJzuVLmeN5Zpf9OweADZQqDV/UW5UYUgPd6aj0V5ia4X6OkMGVawsIvQ+TLwtOVvmNYt1a67GPu7O8XYZyNTfY9G4ZIF4RgzwzqWgNCJQ+wNjg+ZGeojIYQQMgjjR7DlZCch0N+01hmWL8Mqpgk/GadW0oC7Gix3ZzS3agwcrlJVNs1RjXEwtwzS+xbq+oeqGAvuxfRfiP/qAmbs2tJqoLLClTvUDYXVLYZ7UC9rNcFtuRili3CWEHeWaEvLmmb8P2oMIQ7dEUKPw/rbix5NoBJCCCGS1BdsQkj1bW3FXQXDED9RuOeJAtzR0YVrH7bgzjWR2Z75+KFlDTmza6CFLSMbd4Ra8K0jYF0wrwB3hSLi7IaN6Y70ZT+gvgsemApf6wmcjNzuSCH2+d66EtRLi58qrq126dMxC2GXnxHDpe1H6WpsLn85Iuh/MDKQKYPnLOYtNmK8/jDiz3Rrx25/ndNaJ8a+MHQcbXGNgeniDMfRyf2xF7W+SvzGjUVYYSYdRCZKEEIIGU+kqGBrxb8WKvfiwirc2eDS5allakqx9f3WJcZnR8Zm+jL8NKcKX2/NtpMNDGR9QNvunmzcHWlhE8ukb0d4GTtLdA6yVKKBWW8WN0kHjkxOowTQWXnEKZDEdrdVApVLrWWiJCgM4CscfMFcvqCyNWwti8wWjYbY3motps4q7ty0uVhbX4pav+nSlAkAMvjfZt5GlWhguURlsYLwIzNAzQSD8ONAZOKAaXUb2HcI7MxUP2qNBAP52SmCrN8sl7lYHfEYkvRn8JKRMGAtY203nFkqhanl7rWsgtJaeCAnnF3qK5+GA3E+GiRzmtx/IRz7cKSFKiGEkLEiBZ/DJkXXPvzwRC0yk+SCI3EiHxey9ApW69moRt0JLDriLlM0tTCzT3tWO12znkGKTSOzNpwUQQghZHwxfmLYyOjxjyuIDLPqbzsh6rIxnYJhFFHWO4o1QggZ99DCRoZF+67HIJ8VG0bGtOnPfxtPeNzCRgghZNzDV1MRQgghhHgcukQJIYQQQjwOBRshhBBCiMehYCOEEEII8TgUbIQQQgghHoeCjRBCCCHE41CwEUIIIYR4HAo2QgghhBCPQ8FGCCGEEOJxKNgIIYQQQjwOBRshhBBCiMehYCOEEEII8TgUbIQQQgghHoeCjRBCCCHE41CwEUIIIYR4HAo2QgghhBBPA/z/XHRqfyod6IcAAAAASUVORK5CYII=;" vertex="1" parent="1">
          <mxGeometry x="-470" y="160" width="563.64" height="210" as="geometry" />
        </mxCell>
      </root>
    </mxGraphModel>
  </diagram>
</mxfile>
